  0
SECTION
  2
HEADER
  9
$ACADVER
  1
AC1014
  9
$ACADMAINTVER
 70
     9
  9
$DWGCODEPAGE
  3
ISO8859-1
  9
$INSBASE
 10
0.0
 20
0.0
 30
0.0
  9
$EXTMIN
 10
-1.000000000E+20
 20
-1.000000000E+20
 30
0.0
  9
$EXTMAX
 10
1.000000000E+20
 20
1.000000000E+20
 30
0.0
  9
$LIMMIN
 10
-133.827184063
 20
-79.974233021
  9
$LIMMAX
 10
193.601395691
 20
94.426403854
  9
$ORTHOMODE
 70
     0
  9
$REGENMODE
 70
     1
  9
$FILLMODE
 70
     1
  9
$QTEXTMODE
 70
     0
  9
$MIRRTEXT
 70
     1
  9
$DRAGMODE
 70
     2
  9
$LTSCALE
 40
81.857144938
  9
$OSMODE
 70
    37
  9
$ATTMODE
 70
     1
  9
$TEXTSIZE
 40
0.2
  9
$TRACEWID
 40
0.05
  9
$TEXTSTYLE
  7
STANDARD
  9
$CLAYER
  8
0
  9
$CELTYPE
  6
BYLAYER
  9
$CECOLOR
 62
   256
  9
$CELTSCALE
 40
1.0
  9
$DELOBJ
 70
     1
  9
$DISPSILH
 70
     0
  9
$DIMSCALE
 40
1.0
  9
$DIMASZ
 40
0.18
  9
$DIMEXO
 40
0.0625
  9
$DIMDLI
 40
0.38
  9
$DIMRND
 40
0.0
  9
$DIMDLE
 40
0.0
  9
$DIMEXE
 40
0.18
  9
$DIMTP
 40
0.0
  9
$DIMTM
 40
0.0
  9
$DIMTXT
 40
0.18
  9
$DIMCEN
 40
0.09
  9
$DIMTSZ
 40
0.0
  9
$DIMTOL
 70
     0
  9
$DIMLIM
 70
     0
  9
$DIMTIH
 70
     1
  9
$DIMTOH
 70
     1
  9
$DIMSE1
 70
     0
  9
$DIMSE2
 70
     0
  9
$DIMTAD
 70
     0
  9
$DIMZIN
 70
     0
  9
$DIMBLK
  1

  9
$DIMASO
 70
     1
  9
$DIMSHO
 70
     1
  9
$DIMPOST
  1

  9
$DIMAPOST
  1

  9
$DIMALT
 70
     0
  9
$DIMALTD
 70
     2
  9
$DIMALTF
 40
25.4
  9
$DIMLFAC
 40
1.0
  9
$DIMTOFL
 70
     0
  9
$DIMTVP
 40
0.0
  9
$DIMTIX
 70
     0
  9
$DIMSOXD
 70
     0
  9
$DIMSAH
 70
     0
  9
$DIMBLK1
  1

  9
$DIMBLK2
  1

  9
$DIMSTYLE
  2
STANDARD
  9
$DIMCLRD
 70
     0
  9
$DIMCLRE
 70
     0
  9
$DIMCLRT
 70
     0
  9
$DIMTFAC
 40
1.0
  9
$DIMGAP
 40
0.09
  9
$DIMJUST
 70
     0
  9
$DIMSD1
 70
     0
  9
$DIMSD2
 70
     0
  9
$DIMTOLJ
 70
     1
  9
$DIMTZIN
 70
     0
  9
$DIMALTZ
 70
     0
  9
$DIMALTTZ
 70
     0
  9
$DIMFIT
 70
     3
  9
$DIMUPT
 70
     0
  9
$DIMUNIT
 70
     4
  9
$DIMDEC
 70
     4
  9
$DIMTDEC
 70
     4
  9
$DIMALTU
 70
     2
  9
$DIMALTTD
 70
     2
  9
$DIMTXSTY
  7
STANDARD
  9
$DIMAUNIT
 70
     0
  9
$LUNITS
 70
     4
  9
$LUPREC
 70
     4
  9
$SKETCHINC
 40
0.1
  9
$FILLETRAD
 40
0.0
  9
$AUNITS
 70
     0
  9
$AUPREC
 70
     0
  9
$MENU
  1
.
  9
$ELEVATION
 40
0.0
  9
$PELEVATION
 40
0.0
  9
$THICKNESS
 40
0.0
  9
$LIMCHECK
 70
     0
  9
$CHAMFERA
 40
0.0
  9
$CHAMFERB
 40
0.0
  9
$CHAMFERC
 40
0.0
  9
$CHAMFERD
 40
0.0
  9
$SKPOLY
 70
     0
  9
$TDCREATE
 40
2461306.429760799
  9
$TDUPDATE
 40
2461306.429760938
  9
$TDINDWG
 40
0.0000000116
  9
$TDUSRTIMER
 40
0.0000000116
  9
$USRTIMER
 70
     1
  9
$ANGBASE
 50
0.0
  9
$ANGDIR
 70
     0
  9
$PDMODE
 70
     0
  9
$PDSIZE
 40
0.0
  9
$PLINEWID
 40
0.0
  9
$COORDS
 70
     1
  9
$SPLFRAME
 70
     0
  9
$SPLINETYPE
 70
     6
  9
$SPLINESEGS
 70
     8
  9
$ATTDIA
 70
     0
  9
$ATTREQ
 70
     1
  9
$HANDLING
 70
     1
  9
$HANDSEED
  5
1F7
  9
$SURFTAB1
 70
     6
  9
$SURFTAB2
 70
     6
  9
$SURFTYPE
 70
     6
  9
$SURFU
 70
     6
  9
$SURFV
 70
     6
  9
$UCSNAME
  2

  9
$UCSORG
 10
0.0
 20
0.0
 30
0.0
  9
$UCSXDIR
 10
1.0
 20
0.0
 30
0.0
  9
$UCSYDIR
 10
0.0
 20
1.0
 30
0.0
  9
$PUCSNAME
  2

  9
$PUCSORG
 10
0.0
 20
0.0
 30
0.0
  9
$PUCSXDIR
 10
1.0
 20
0.0
 30
0.0
  9
$PUCSYDIR
 10
0.0
 20
1.0
 30
0.0
  9
$USERI1
 70
     0
  9
$USERI2
 70
     0
  9
$USERI3
 70
     0
  9
$USERI4
 70
     0
  9
$USERI5
 70
     0
  9
$USERR1
 40
0.0
  9
$USERR2
 40
0.0
  9
$USERR3
 40
0.0
  9
$USERR4
 40
0.0
  9
$USERR5
 40
0.0
  9
$WORLDVIEW
 70
     1
  9
$SHADEDGE
 70
     3
  9
$SHADEDIF
 70
    70
  9
$TILEMODE
 70
     1
  9
$MAXACTVP
 70
    64
  9
$PINSBASE
 10
0.0
 20
0.0
 30
0.0
  9
$PLIMCHECK
 70
     0
  9
$PEXTMIN
 10
1.000000000E+20
 20
1.000000000E+20
 30
1.000000000E+20
  9
$PEXTMAX
 10
-1.000000000E+20
 20
-1.000000000E+20
 30
-1.000000000E+20
  9
$PLIMMIN
 10
0.0
 20
0.0
  9
$PLIMMAX
 10
12.0
 20
9.0
  9
$UNITMODE
 70
     0
  9
$VISRETAIN
 70
     1
  9
$PLINEGEN
 70
     0
  9
$PSLTSCALE
 70
     1
  9
$TREEDEPTH
 70
  3020
  9
$PICKSTYLE
 70
     1
  9
$CMLSTYLE
  2
STANDARD
  9
$CMLJUST
 70
     0
  9
$CMLSCALE
 40
1.0
  9
$PROXYGRAPHICS
 70
     1
  9
$MEASUREMENT
 70
     0
  0
ENDSEC
  0
SECTION
  2
CLASSES
  0
CLASS
  1
ACDBDICTIONARYWDFLT
  2
AcDbDictionaryWithDefault
  3
ObjectDBX Classes
 90
        0
280
     0
281
     0
  0
CLASS
  1
VISUALSTYLE
  2
AcDbVisualStyle
  3
ObjectDBX Classes
 90
     4095
280
     0
281
     0
  0
CLASS
  1
MATERIAL
  2
AcDbMaterial
  3
ObjectDBX Classes
 90
     1153
280
     0
281
     0
  0
CLASS
  1
SCALE
  2
AcDbScale
  3
ObjectDBX Classes
 90
     1153
280
     0
281
     0
  0
CLASS
  1
TABLESTYLE
  2
AcDbTableStyle
  3
ObjectDBX Classes
 90
     4095
280
     0
281
     0
  0
CLASS
  1
MLEADERSTYLE
  2
AcDbMLeaderStyle
  3
ACDB_MLEADERSTYLE_CLASS
 90
     4095
280
     0
281
     0
  0
CLASS
  1
SUN
  2
AcDbSun
  3
SCENEOE
 90
     1153
280
     0
281
     0
  0
CLASS
  1
DICTIONARYVAR
  2
AcDbDictionaryVar
  3
ObjectDBX Classes
 90
        0
280
     0
281
     0
  0
CLASS
  1
XRECORD
  2
AcDbXrecord
  3
ObjectDBX Classes
 90
        0
280
     0
281
     0
  0
CLASS
  1
LWPOLYLINE
  2
AcDbPolyline
  3
ObjectDBX Classes
 90
        0
280
     0
281
     1
  0
CLASS
  1
HATCH
  2
AcDbHatch
  3
ObjectDBX Classes
 90
        0
280
     0
281
     1
  0
CLASS
  1
ACDBPLACEHOLDER
  2
AcDbPlaceHolder
  3
ObjectDBX Classes
 90
        0
280
     0
281
     0
  0
CLASS
  1
LAYOUT
  2
AcDbLayout
  3
ObjectDBX Classes
 90
        0
280
     0
281
     0
  0
ENDSEC
  0
SECTION
  2
TABLES
  0
TABLE
  2
VPORT
  5
8
102
{ACAD_XDICTIONARY
360
1EC
102
}
330
0
100
AcDbSymbolTable
 70
     1
  0
VPORT
  5
29
330
8
100
AcDbSymbolTableRecord
100
AcDbViewportTableRecord
  2
*ACTIVE
 70
     0
 10
0.0
 20
0.0
 11
1.0
 21
1.0
 12
10.429906542
 22
4.5
 13
0.0
 23
0.0
 14
0.5
 24
0.5
 15
0.5
 25
0.5
 16
0.0
 26
0.0
 36
1.0
 17
0.0
 27
0.0
 37
0.0
 40
9.0
 41
1.972972973
 42
50.0
 43
0.0
 44
0.0
 50
0.0
 51
0.0
 71
     0
 72
   100
 73
     1
 74
     3
 75
     0
 76
     0
 77
     0
 78
     0
  0
ENDTAB
  0
TABLE
  2
LTYPE
  5
5
330
0
100
AcDbSymbolTable
 70
     7
  0
LTYPE
  5
14
330
5
100
AcDbSymbolTableRecord
100
AcDbLinetypeTableRecord
  2
BYBLOCK
 70
     0
  3

 72
    65
 73
     0
 40
0.0
  0
LTYPE
  5
15
330
5
100
AcDbSymbolTableRecord
100
AcDbLinetypeTableRecord
  2
BYLAYER
 70
     0
  3

 72
    65
 73
     0
 40
0.0
  0
LTYPE
  5
16
330
5
100
AcDbSymbolTableRecord
100
AcDbLinetypeTableRecord
  2
CONTINUOUS
 70
     0
  3
Solid line
 72
    65
 73
     0
 40
0.0
  0
LTYPE
  5
5E
330
5
100
AcDbSymbolTableRecord
100
AcDbLinetypeTableRecord
  2
SDS2_3
 70
     0
  3
. . . . . . . . . . . . . . . . . . . . . .
 72
    65
 73
     2
 40
0.05
 49
0.0
 74
     0
 49
-0.05
 74
     0
  0
LTYPE
  5
5F
330
5
100
AcDbSymbolTableRecord
100
AcDbLinetypeTableRecord
  2
SDS2_4
 70
     0
  3
...........................................
 72
    65
 73
     2
 40
0.025
 49
0.0
 74
     0
 49
-0.025
 74
     0
  0
LTYPE
  5
60
330
5
100
AcDbSymbolTableRecord
100
AcDbLinetypeTableRecord
  2
SDS2_5
 70
     0
  3
_ _ _ _ _ _ _ _ _ _ _ _ _
 72
    65
 73
     2
 40
0.04
 49
0.02
 74
     0
 49
-0.02
 74
     0
  0
LTYPE
  5
61
330
5
100
AcDbSymbolTableRecord
100
AcDbLinetypeTableRecord
  2
SDS2_6
 70
     0
  3
__ . __ . __ . __ . __ . __ . __ .
 72
    65
 73
     4
 40
0.2
 49
0.1
 74
     0
 49
-0.05
 74
     0
 49
0.0
 74
     0
 49
-0.05
 74
     0
  0
LTYPE
  5
62
330
5
100
AcDbSymbolTableRecord
100
AcDbLinetypeTableRecord
  2
SDS2_7
 70
     0
  3
___ _ ___ _ ___ _ ___ _
 72
    65
 73
     4
 40
0.175
 49
0.1
 74
     0
 49
-0.025
 74
     0
 49
0.025
 74
     0
 49
-0.025
 74
     0
  0
LTYPE
  5
63
330
5
100
AcDbSymbolTableRecord
100
AcDbLinetypeTableRecord
  2
SDS2_8
 70
     0
  3
___ _ _ ___ _ _ ___ _ _
 72
    65
 73
     6
 40
0.2
 49
0.1
 74
     0
 49
-0.02
 74
     0
 49
0.02
 74
     0
 49
-0.02
 74
     0
 49
0.02
 74
     0
 49
-0.02
 74
     0
  0
ENDTAB
  0
TABLE
  2
LAYER
  5
2
330
0
100
AcDbSymbolTable
 70
     7
  0
LAYER
  5
10
330
2
100
AcDbSymbolTableRecord
100
AcDbLayerTableRecord
  2
0
 70
     0
 62
     7
  6
CONTINUOUS
  0
LAYER
  5
64
330
2
100
AcDbSymbolTableRecord
100
AcDbLayerTableRecord
  2
OUTLINE
 70
     0
 62
     7
  6
CONTINUOUS
  0
LAYER
  5
65
330
2
100
AcDbSymbolTableRecord
100
AcDbLayerTableRecord
  2
SYSTEM_ANNOTATION
 70
     0
 62
     7
  6
CONTINUOUS
  0
LAYER
  5
66
330
2
100
AcDbSymbolTableRecord
100
AcDbLayerTableRecord
  2
USER_ANNOTATION
 70
     0
 62
     7
  6
CONTINUOUS
  0
LAYER
  5
67
330
2
100
AcDbSymbolTableRecord
100
AcDbLayerTableRecord
  2
REFERENCE_DIMENSION
 70
     0
 62
     7
  6
CONTINUOUS
  0
LAYER
  5
68
330
2
100
AcDbSymbolTableRecord
100
AcDbLayerTableRecord
  2
DETAIL_RULE_ANNOTATIONS
 70
     0
 62
     7
  6
CONTINUOUS
  0
LAYER
  5
69
330
2
100
AcDbSymbolTableRecord
100
AcDbLayerTableRecord
  2
USER_ADJUSTED
 70
     0
 62
     7
  6
CONTINUOUS
  0
ENDTAB
  0
TABLE
  2
STYLE
  5
3
330
0
100
AcDbSymbolTable
 70
     2
  0
STYLE
  5
11
330
3
100
AcDbSymbolTableRecord
100
AcDbTextStyleTableRecord
  2
STANDARD
 70
     0
 40
0.0
 41
1.0
 50
0.0
 71
     0
 42
0.2
  3
txt
  4

  0
STYLE
  5
B5
330
3
100
AcDbSymbolTableRecord
100
AcDbTextStyleTableRecord
  2
ARIAL
 70
     0
 40
0.2
 41
0.8
 50
0.0
 71
     0
 42
0.2
  3
arial.ttf
  4

1001
ACAD
1000
Arial
1071
        0
  0
ENDTAB
  0
TABLE
  2
VIEW
  5
6
330
0
100
AcDbSymbolTable
 70
     0
  0
ENDTAB
  0
TABLE
  2
UCS
  5
7
330
0
100
AcDbSymbolTable
 70
     0
  0
ENDTAB
  0
TABLE
  2
APPID
  5
9
330
0
100
AcDbSymbolTable
 70
     2
  0
APPID
  5
12
330
9
100
AcDbSymbolTableRecord
100
AcDbRegAppTableRecord
  2
ACAD
 70
     0
  0
APPID
  5
1F6
330
9
100
AcDbSymbolTableRecord
100
AcDbRegAppTableRecord
  2
ACAD_MLEADERVER
 70
     0
  0
ENDTAB
  0
TABLE
  2
DIMSTYLE
  5
A
330
0
100
AcDbSymbolTable
 70
     1
  0
DIMSTYLE
105
27
330
A
100
AcDbSymbolTableRecord
100
AcDbDimStyleTableRecord
  2
STANDARD
 70
     0
  3

  4

  5

  6

  7

 40
1.0
 41
0.18
 42
0.0625
 43
0.38
 44
0.18
 45
0.0
 46
0.0
 47
0.0
 48
0.0
140
0.18
141
0.09
142
0.0
143
25.4
144
1.0
145
0.0
146
1.0
147
0.09
 71
     0
 72
     0
 73
     1
 74
     1
 75
     0
 76
     0
 77
     0
 78
     0
170
     0
171
     2
172
     0
173
     0
174
     0
175
     0
176
     0
177
     0
178
     0
270
     2
271
     4
272
     4
273
     2
274
     2
340
11
275
     0
280
     0
281
     0
282
     0
283
     1
284
     0
285
     0
286
     0
287
     3
288
     0
  0
ENDTAB
  0
TABLE
  2
BLOCK_RECORD
  5
1
330
0
100
AcDbSymbolTable
 70
     0
  0
BLOCK_RECORD
  5
1F
330
1
100
AcDbSymbolTableRecord
100
AcDbBlockTableRecord
  2
*MODEL_SPACE
  0
BLOCK_RECORD
  5
1B
330
1
100
AcDbSymbolTableRecord
100
AcDbBlockTableRecord
  2
*PAPER_SPACE
  0
ENDTAB
  0
ENDSEC
  0
SECTION
  2
BLOCKS
  0
BLOCK
  5
20
330
1F
100
AcDbEntity
  8
0
100
AcDbBlockBegin
  2
*MODEL_SPACE
 70
     0
 10
0.0
 20
0.0
 30
0.0
  3
*MODEL_SPACE
  1

  0
ENDBLK
  5
21
330
1F
100
AcDbEntity
  8
0
100
AcDbBlockEnd
  0
BLOCK
  5
1C
330
1B
100
AcDbEntity
 67
     1
  8
0
100
AcDbBlockBegin
  2
*PAPER_SPACE
 70
     0
 10
0.0
 20
0.0
 30
0.0
  3
*PAPER_SPACE
  1

  0
ENDBLK
  5
1D
330
1B
100
AcDbEntity
 67
     1
  8
0
100
AcDbBlockEnd
  0
ENDSEC
  0
SECTION
  2
ENTITIES
  0
LINE
  5
6B
330
1F
100
AcDbEntity
  8
OUTLINE
  6
CONTINUOUS
 62
     2
100
AcDbLine
 10
34.3125
 20
-35.25
 30
0.0
 11
3.9375
 21
-35.25
 31
0.0
  0
LINE
  5
6C
330
1F
100
AcDbEntity
  8
OUTLINE
  6
CONTINUOUS
 62
     2
100
AcDbLine
 10
3.9375
 20
-35.25
 30
0.0
 11
3.9375
 21
-35.7
 31
0.0
  0
LINE
  5
6D
330
1F
100
AcDbEntity
  8
OUTLINE
  6
CONTINUOUS
 62
     2
100
AcDbLine
 10
3.9375
 20
-35.7
 30
0.0
 11
34.3125
 21
-35.7
 31
0.0
  0
LINE
  5
6E
330
1F
100
AcDbEntity
  8
OUTLINE
  6
CONTINUOUS
 62
     2
100
AcDbLine
 10
34.3125
 20
-35.7
 30
0.0
 11
34.3125
 21
-35.25
 31
0.0
  0
LINE
  5
6F
330
1F
100
AcDbEntity
  8
OUTLINE
  6
CONTINUOUS
 62
     2
100
AcDbLine
 10
34.3125
 20
-15.0
 30
0.0
 11
3.9375
 21
-15.0
 31
0.0
  0
LINE
  5
70
330
1F
100
AcDbEntity
  8
OUTLINE
  6
CONTINUOUS
 62
     2
100
AcDbLine
 10
3.9375
 20
-15.0
 30
0.0
 11
3.9375
 21
-15.45
 31
0.0
  0
LINE
  5
71
330
1F
100
AcDbEntity
  8
OUTLINE
  6
CONTINUOUS
 62
     2
100
AcDbLine
 10
3.9375
 20
-15.45
 30
0.0
 11
34.3125
 21
-15.45
 31
0.0
  0
LINE
  5
72
330
1F
100
AcDbEntity
  8
OUTLINE
  6
CONTINUOUS
 62
     2
100
AcDbLine
 10
34.3125
 20
-15.45
 30
0.0
 11
34.3125
 21
-15.0
 31
0.0
  0
LINE
  5
73
330
1F
100
AcDbEntity
  8
OUTLINE
  6
CONTINUOUS
 62
     2
100
AcDbLine
 10
34.3125
 20
-35.215389248
 30
0.0
 11
34.3125
 21
-35.198618684
 31
0.0
  0
LINE
  5
74
330
1F
100
AcDbEntity
  8
OUTLINE
  6
CONTINUOUS
 62
     2
100
AcDbLine
 10
3.9375
 20
-35.198618684
 30
0.0
 11
3.9375
 21
-35.215389248
 31
0.0
  0
LINE
  5
75
330
1F
100
AcDbEntity
  8
OUTLINE
  6
CONTINUOUS
 62
     2
100
AcDbLine
 10
3.9375
 20
-35.215389248
 30
0.0
 11
3.9375
 21
-35.25
 31
0.0
  0
LINE
  5
76
330
1F
100
AcDbEntity
  8
OUTLINE
  6
CONTINUOUS
 62
     2
100
AcDbLine
 10
34.3125
 20
-35.25
 30
0.0
 11
34.3125
 21
-35.215389248
 31
0.0
  0
LINE
  5
77
330
1F
100
AcDbEntity
  8
OUTLINE
  6
CONTINUOUS
 62
     2
100
AcDbLine
 10
3.9375
 20
-15.45
 30
0.0
 11
3.9375
 21
-15.484610752
 31
0.0
  0
LINE
  5
78
330
1F
100
AcDbEntity
  8
OUTLINE
  6
CONTINUOUS
 62
     2
100
AcDbLine
 10
3.9375
 20
-15.484610752
 30
0.0
 11
3.9375
 21
-15.501381316
 31
0.0
  0
LINE
  5
79
330
1F
100
AcDbEntity
  8
OUTLINE
  6
CONTINUOUS
 62
     2
100
AcDbLine
 10
34.3125
 20
-15.501381316
 30
0.0
 11
34.3125
 21
-15.484610752
 31
0.0
  0
LINE
  5
7A
330
1F
100
AcDbEntity
  8
OUTLINE
  6
CONTINUOUS
 62
     2
100
AcDbLine
 10
34.3125
 20
-15.484610752
 30
0.0
 11
34.3125
 21
-15.45
 31
0.0
  0
LINE
  5
7B
330
1F
100
AcDbEntity
  8
OUTLINE
  6
CONTINUOUS
 62
     2
100
AcDbLine
 10
3.9375
 20
-15.501381316
 30
0.0
 11
3.9375
 21
-15.647702923
 31
0.0
  0
LINE
  5
7C
330
1F
100
AcDbEntity
  8
OUTLINE
  6
CONTINUOUS
 62
     2
100
AcDbLine
 10
34.3125
 20
-15.647702923
 30
0.0
 11
34.3125
 21
-15.501381316
 31
0.0
  0
LINE
  5
7D
330
1F
100
AcDbEntity
  8
OUTLINE
  6
CONTINUOUS
 62
     2
100
AcDbLine
 10
3.9375
 20
-35.052297077
 30
0.0
 11
3.9375
 21
-35.198618684
 31
0.0
  0
LINE
  5
7E
330
1F
100
AcDbEntity
  8
OUTLINE
  6
CONTINUOUS
 62
     2
100
AcDbLine
 10
34.3125
 20
-35.198618684
 30
0.0
 11
34.3125
 21
-35.052297077
 31
0.0
  0
LINE
  5
7F
330
1F
100
AcDbEntity
  8
OUTLINE
  6
CONTINUOUS
 62
     2
100
AcDbLine
 10
3.914289178
 20
-34.833311317
 30
0.0
 11
3.9375
 21
-34.95
 31
0.0
  0
LINE
  5
80
330
1F
100
AcDbEntity
  8
OUTLINE
  6
CONTINUOUS
 62
     2
100
AcDbLine
 10
3.9375
 20
-34.95
 30
0.0
 11
3.9375
 21
-35.052297077
 31
0.0
  0
LINE
  5
81
330
1F
100
AcDbEntity
  8
OUTLINE
  6
CONTINUOUS
 62
     2
100
AcDbLine
 10
34.3125
 20
-35.052297077
 30
0.0
 11
34.3125
 21
-34.95
 31
0.0
  0
LINE
  5
82
330
1F
100
AcDbEntity
  8
OUTLINE
  6
CONTINUOUS
 62
     2
100
AcDbLine
 10
34.3125
 20
-34.95
 30
0.0
 11
34.335710822
 21
-34.833311317
 31
0.0
  0
LINE
  5
83
330
1F
100
AcDbEntity
  8
OUTLINE
  6
CONTINUOUS
 62
     2
100
AcDbLine
 10
3.9375
 20
-15.647702923
 30
0.0
 11
3.9375
 21
-15.75
 31
0.0
  0
LINE
  5
84
330
1F
100
AcDbEntity
  8
OUTLINE
  6
CONTINUOUS
 62
     2
100
AcDbLine
 10
3.9375
 20
-15.75
 30
0.0
 11
3.914289178
 21
-15.866688683
 31
0.0
  0
LINE
  5
85
330
1F
100
AcDbEntity
  8
OUTLINE
  6
CONTINUOUS
 62
     2
100
AcDbLine
 10
34.335710822
 20
-15.866688683
 30
0.0
 11
34.3125
 21
-15.75
 31
0.0
  0
LINE
  5
86
330
1F
100
AcDbEntity
  8
OUTLINE
  6
CONTINUOUS
 62
     2
100
AcDbLine
 10
34.3125
 20
-15.75
 30
0.0
 11
34.3125
 21
-15.647702923
 31
0.0
  0
LINE
  5
87
330
1F
100
AcDbEntity
  8
OUTLINE
  6
CONTINUOUS
 62
     2
100
AcDbLine
 10
3.758956271
 20
-34.575
 30
0.0
 11
3.791053391
 21
-34.596446609
 31
0.0
  0
LINE
  5
88
330
1F
100
AcDbEntity
  8
OUTLINE
  6
CONTINUOUS
 62
     2
100
AcDbLine
 10
3.791053391
 20
-34.596446609
 30
0.0
 11
3.899439766
 21
-34.758658284
 31
0.0
  0
LINE
  5
89
330
1F
100
AcDbEntity
  8
OUTLINE
  6
CONTINUOUS
 62
     2
100
AcDbLine
 10
3.899439766
 20
-34.758658284
 30
0.0
 11
3.914289178
 21
-34.833311317
 31
0.0
  0
LINE
  5
8A
330
1F
100
AcDbEntity
  8
OUTLINE
  6
CONTINUOUS
 62
     2
100
AcDbLine
 10
34.335710822
 20
-34.833311317
 30
0.0
 11
34.350560234
 21
-34.758658284
 31
0.0
  0
LINE
  5
8B
330
1F
100
AcDbEntity
  8
OUTLINE
  6
CONTINUOUS
 62
     2
100
AcDbLine
 10
34.350560234
 20
-34.758658284
 30
0.0
 11
34.458946609
 21
-34.596446609
 31
0.0
  0
LINE
  5
8C
330
1F
100
AcDbEntity
  8
OUTLINE
  6
CONTINUOUS
 62
     2
100
AcDbLine
 10
34.458946609
 20
-34.596446609
 30
0.0
 11
34.491043729
 21
-34.575
 31
0.0
  0
LINE
  5
8D
330
1F
100
AcDbEntity
  8
OUTLINE
  6
CONTINUOUS
 62
     2
100
AcDbLine
 10
3.914289178
 20
-15.866688683
 30
0.0
 11
3.899439766
 21
-15.941341716
 31
0.0
  0
LINE
  5
8E
330
1F
100
AcDbEntity
  8
OUTLINE
  6
CONTINUOUS
 62
     2
100
AcDbLine
 10
3.899439766
 20
-15.941341716
 30
0.0
 11
3.791053391
 21
-16.103553391
 31
0.0
  0
LINE
  5
8F
330
1F
100
AcDbEntity
  8
OUTLINE
  6
CONTINUOUS
 62
     2
100
AcDbLine
 10
3.791053391
 20
-16.103553391
 30
0.0
 11
3.758956271
 21
-16.125
 31
0.0
  0
LINE
  5
90
330
1F
100
AcDbEntity
  8
OUTLINE
  6
CONTINUOUS
 62
     2
100
AcDbLine
 10
34.491043729
 20
-16.125
 30
0.0
 11
34.458946609
 21
-16.103553391
 31
0.0
  0
LINE
  5
91
330
1F
100
AcDbEntity
  8
OUTLINE
  6
CONTINUOUS
 62
     2
100
AcDbLine
 10
34.458946609
 20
-16.103553391
 30
0.0
 11
34.350560234
 21
-15.941341716
 31
0.0
  0
LINE
  5
92
330
1F
100
AcDbEntity
  8
OUTLINE
  6
CONTINUOUS
 62
     2
100
AcDbLine
 10
34.350560234
 20
-15.941341716
 30
0.0
 11
34.335710822
 21
-15.866688683
 31
0.0
  0
LINE
  5
93
330
1F
100
AcDbEntity
  8
OUTLINE
  6
CONTINUOUS
 62
     2
100
AcDbLine
 10
34.8125
 20
-34.45
 30
0.0
 11
38.3125
 21
-34.45
 31
0.0
  0
LINE
  5
94
330
1F
100
AcDbEntity
  8
OUTLINE
  6
CONTINUOUS
 62
     2
100
AcDbLine
 10
38.3125
 20
-34.45
 30
0.0
 11
38.3125
 21
-16.25
 31
0.0
  0
LINE
  5
95
330
1F
100
AcDbEntity
  8
OUTLINE
  6
CONTINUOUS
 62
     2
100
AcDbLine
 10
38.3125
 20
-16.25
 30
0.0
 11
34.8125
 21
-16.25
 31
0.0
  0
LINE
  5
96
330
1F
100
AcDbEntity
  8
OUTLINE
  6
CONTINUOUS
 62
     2
100
AcDbLine
 10
34.8125
 20
-16.25
 30
0.0
 11
34.621158284
 21
-16.211939766
 31
0.0
  0
LINE
  5
97
330
1F
100
AcDbEntity
  8
OUTLINE
  6
CONTINUOUS
 62
     2
100
AcDbLine
 10
34.621158284
 20
-16.211939766
 30
0.0
 11
34.491043729
 21
-16.125
 31
0.0
  0
LINE
  5
98
330
1F
100
AcDbEntity
  8
OUTLINE
  6
CONTINUOUS
 62
     2
100
AcDbLine
 10
3.758956271
 20
-16.125
 30
0.0
 11
3.628841716
 21
-16.211939766
 31
0.0
  0
LINE
  5
99
330
1F
100
AcDbEntity
  8
OUTLINE
  6
CONTINUOUS
 62
     2
100
AcDbLine
 10
3.628841716
 20
-16.211939766
 30
0.0
 11
3.4375
 21
-16.25
 31
0.0
  0
LINE
  5
9A
330
1F
100
AcDbEntity
  8
OUTLINE
  6
CONTINUOUS
 62
     2
100
AcDbLine
 10
3.4375
 20
-16.25
 30
0.0
 11
0.6875
 21
-16.25
 31
0.0
  0
LINE
  5
9B
330
1F
100
AcDbEntity
  8
OUTLINE
  6
CONTINUOUS
 62
     2
100
AcDbLine
 10
0.6875
 20
-16.25
 30
0.0
 11
0.6875
 21
-34.45
 31
0.0
  0
LINE
  5
9C
330
1F
100
AcDbEntity
  8
OUTLINE
  6
CONTINUOUS
 62
     2
100
AcDbLine
 10
0.6875
 20
-34.45
 30
0.0
 11
3.4375
 21
-34.45
 31
0.0
  0
LINE
  5
9D
330
1F
100
AcDbEntity
  8
OUTLINE
  6
CONTINUOUS
 62
     2
100
AcDbLine
 10
3.4375
 20
-34.45
 30
0.0
 11
3.628841716
 21
-34.488060234
 31
0.0
  0
LINE
  5
9E
330
1F
100
AcDbEntity
  8
OUTLINE
  6
CONTINUOUS
 62
     2
100
AcDbLine
 10
3.628841716
 20
-34.488060234
 30
0.0
 11
3.758956271
 21
-34.575
 31
0.0
  0
LINE
  5
9F
330
1F
100
AcDbEntity
  8
OUTLINE
  6
CONTINUOUS
 62
     2
100
AcDbLine
 10
34.491043729
 20
-34.575
 30
0.0
 11
34.621158284
 21
-34.488060234
 31
0.0
  0
LINE
  5
A0
330
1F
100
AcDbEntity
  8
OUTLINE
  6
CONTINUOUS
 62
     2
100
AcDbLine
 10
34.621158284
 20
-34.488060234
 30
0.0
 11
34.8125
 21
-34.45
 31
0.0
  0
LWPOLYLINE
  5
A1
102
{ACAD_REACTORS
330
A2
102
}
330
1F
100
AcDbEntity
  8
OUTLINE
  6
CONTINUOUS
 62
     2
100
AcDbPolyline
 90
       17
 70
     1
 43
0.0
 10
2.24625
 20
-18.0
 10
2.27717394
 20
-18.155465144
 10
2.36523787
 20
-18.28726213
 10
2.497034856
 20
-18.37532606
 10
2.6525
 20
-18.40625
 10
2.807965144
 20
-18.37532606
 10
2.93976213
 20
-18.28726213
 10
3.02782606
 20
-18.155465144
 10
3.05875
 20
-18.0
 10
3.02782606
 20
-17.844534856
 10
2.93976213
 20
-17.71273787
 10
2.807965144
 20
-17.62467394
 10
2.6525
 20
-17.59375
 10
2.497034856
 20
-17.62467394
 10
2.36523787
 20
-17.71273787
 10
2.27717394
 20
-17.844534856
 10
2.24625
 20
-18.0
  0
HATCH
  5
A2
330
1F
100
AcDbEntity
  8
0
 62
     3
100
AcDbHatch
 10
0.0
 20
0.0
 30
0.0
210
0.0
220
0.0
230
1.0
  2
SOLID
 70
     1
 71
     1
 91
        1
 92
       16
 93
       17
 72
     1
 10
2.246250000000146
 20
-18.0
 11
2.277173939917702
 21
-18.15546514439825
 72
     1
 10
2.277173939917702
 20
-18.15546514439825
 11
2.365237870142664
 21
-18.28726212985703
 72
     1
 10
2.365237870142664
 20
-18.28726212985703
 11
2.497034855601669
 21
-18.37532606008267
 72
     1
 10
2.497034855601669
 20
-18.37532606008267
 11
2.652500000000146
 21
-18.40625
 72
     1
 10
2.652500000000146
 20
-18.40625
 11
2.807965144398622
 21
-18.37532606008267
 72
     1
 10
2.807965144398622
 20
-18.37532606008267
 11
2.939762129857627
 21
-18.28726212985703
 72
     1
 10
2.939762129857627
 20
-18.28726212985703
 11
3.027826060082589
 21
-18.15546514439825
 72
     1
 10
3.027826060082589
 20
-18.15546514439825
 11
3.058750000000146
 21
-18.0
 72
     1
 10
3.058750000000146
 20
-18.0
 11
3.027826060082589
 21
-17.84453485560175
 72
     1
 10
3.027826060082589
 20
-17.84453485560175
 11
2.939762129857627
 21
-17.71273787014297
 72
     1
 10
2.939762129857627
 20
-17.71273787014297
 11
2.807965144398622
 21
-17.62467393991733
 72
     1
 10
2.807965144398622
 20
-17.62467393991733
 11
2.652500000000146
 21
-17.59375
 72
     1
 10
2.652500000000146
 20
-17.59375
 11
2.497034855601669
 21
-17.62467393991733
 72
     1
 10
2.497034855601669
 20
-17.62467393991733
 11
2.365237870142664
 21
-17.71273787014297
 72
     1
 10
2.365237870142664
 20
-17.71273787014297
 11
2.277173939917702
 21
-17.84453485560175
 72
     1
 10
2.277173939917702
 20
-17.84453485560175
 11
2.246250000000146
 21
-18.0
 72
     1
 10
2.246250000000146
 20
-18.0
 11
2.246250000000146
 21
-18.0
 97
        1
330
A1
 75
     0
 76
     1
 98
        0
  0
LWPOLYLINE
  5
A3
102
{ACAD_REACTORS
330
A4
102
}
330
1F
100
AcDbEntity
  8
OUTLINE
  6
CONTINUOUS
 62
     2
100
AcDbPolyline
 90
       17
 70
     1
 43
0.0
 10
2.24625
 20
-21.0
 10
2.27717394
 20
-21.155465144
 10
2.36523787
 20
-21.28726213
 10
2.497034856
 20
-21.37532606
 10
2.6525
 20
-21.40625
 10
2.807965144
 20
-21.37532606
 10
2.93976213
 20
-21.28726213
 10
3.02782606
 20
-21.155465144
 10
3.05875
 20
-21.0
 10
3.02782606
 20
-20.844534856
 10
2.93976213
 20
-20.71273787
 10
2.807965144
 20
-20.62467394
 10
2.6525
 20
-20.59375
 10
2.497034856
 20
-20.62467394
 10
2.36523787
 20
-20.71273787
 10
2.27717394
 20
-20.844534856
 10
2.24625
 20
-21.0
  0
HATCH
  5
A4
330
1F
100
AcDbEntity
  8
0
 62
     3
100
AcDbHatch
 10
0.0
 20
0.0
 30
0.0
210
0.0
220
0.0
230
1.0
  2
SOLID
 70
     1
 71
     1
 91
        1
 92
       16
 93
       17
 72
     1
 10
2.246250000000146
 20
-21.0
 11
2.277173939917702
 21
-21.15546514439825
 72
     1
 10
2.277173939917702
 20
-21.15546514439825
 11
2.365237870142664
 21
-21.28726212985703
 72
     1
 10
2.365237870142664
 20
-21.28726212985703
 11
2.497034855601669
 21
-21.37532606008267
 72
     1
 10
2.497034855601669
 20
-21.37532606008267
 11
2.652500000000146
 21
-21.40625
 72
     1
 10
2.652500000000146
 20
-21.40625
 11
2.807965144398622
 21
-21.37532606008267
 72
     1
 10
2.807965144398622
 20
-21.37532606008267
 11
2.939762129857627
 21
-21.28726212985703
 72
     1
 10
2.939762129857627
 20
-21.28726212985703
 11
3.027826060082589
 21
-21.15546514439825
 72
     1
 10
3.027826060082589
 20
-21.15546514439825
 11
3.058750000000146
 21
-21.0
 72
     1
 10
3.058750000000146
 20
-21.0
 11
3.027826060082589
 21
-20.84453485560175
 72
     1
 10
3.027826060082589
 20
-20.84453485560175
 11
2.939762129857627
 21
-20.71273787014297
 72
     1
 10
2.939762129857627
 20
-20.71273787014297
 11
2.807965144398622
 21
-20.62467393991733
 72
     1
 10
2.807965144398622
 20
-20.62467393991733
 11
2.652500000000146
 21
-20.59375
 72
     1
 10
2.652500000000146
 20
-20.59375
 11
2.497034855601669
 21
-20.62467393991733
 72
     1
 10
2.497034855601669
 20
-20.62467393991733
 11
2.365237870142664
 21
-20.71273787014297
 72
     1
 10
2.365237870142664
 20
-20.71273787014297
 11
2.277173939917702
 21
-20.84453485560175
 72
     1
 10
2.277173939917702
 20
-20.84453485560175
 11
2.246250000000146
 21
-21.0
 72
     1
 10
2.246250000000146
 20
-21.0
 11
2.246250000000146
 21
-21.0
 97
        1
330
A3
 75
     0
 76
     1
 98
        0
  0
LWPOLYLINE
  5
A5
102
{ACAD_REACTORS
330
A6
102
}
330
1F
100
AcDbEntity
  8
OUTLINE
  6
CONTINUOUS
 62
     2
100
AcDbPolyline
 90
       17
 70
     1
 43
0.0
 10
2.24625
 20
-24.0
 10
2.27717394
 20
-24.155465144
 10
2.36523787
 20
-24.28726213
 10
2.497034856
 20
-24.37532606
 10
2.6525
 20
-24.40625
 10
2.807965144
 20
-24.37532606
 10
2.93976213
 20
-24.28726213
 10
3.02782606
 20
-24.155465144
 10
3.05875
 20
-24.0
 10
3.02782606
 20
-23.844534856
 10
2.93976213
 20
-23.71273787
 10
2.807965144
 20
-23.62467394
 10
2.6525
 20
-23.59375
 10
2.497034856
 20
-23.62467394
 10
2.36523787
 20
-23.71273787
 10
2.27717394
 20
-23.844534856
 10
2.24625
 20
-24.0
  0
HATCH
  5
A6
330
1F
100
AcDbEntity
  8
0
 62
     3
100
AcDbHatch
 10
0.0
 20
0.0
 30
0.0
210
0.0
220
0.0
230
1.0
  2
SOLID
 70
     1
 71
     1
 91
        1
 92
       16
 93
       17
 72
     1
 10
2.246250000000146
 20
-24.0
 11
2.277173939917702
 21
-24.15546514439825
 72
     1
 10
2.277173939917702
 20
-24.15546514439825
 11
2.365237870142664
 21
-24.28726212985703
 72
     1
 10
2.365237870142664
 20
-24.28726212985703
 11
2.497034855601669
 21
-24.37532606008267
 72
     1
 10
2.497034855601669
 20
-24.37532606008267
 11
2.652500000000146
 21
-24.40625
 72
     1
 10
2.652500000000146
 20
-24.40625
 11
2.807965144398622
 21
-24.37532606008267
 72
     1
 10
2.807965144398622
 20
-24.37532606008267
 11
2.939762129857627
 21
-24.28726212985703
 72
     1
 10
2.939762129857627
 20
-24.28726212985703
 11
3.027826060082589
 21
-24.15546514439825
 72
     1
 10
3.027826060082589
 20
-24.15546514439825
 11
3.058750000000146
 21
-24.0
 72
     1
 10
3.058750000000146
 20
-24.0
 11
3.027826060082589
 21
-23.84453485560175
 72
     1
 10
3.027826060082589
 20
-23.84453485560175
 11
2.939762129857627
 21
-23.71273787014297
 72
     1
 10
2.939762129857627
 20
-23.71273787014297
 11
2.807965144398622
 21
-23.62467393991733
 72
     1
 10
2.807965144398622
 20
-23.62467393991733
 11
2.652500000000146
 21
-23.59375
 72
     1
 10
2.652500000000146
 20
-23.59375
 11
2.497034855601669
 21
-23.62467393991733
 72
     1
 10
2.497034855601669
 20
-23.62467393991733
 11
2.365237870142664
 21
-23.71273787014297
 72
     1
 10
2.365237870142664
 20
-23.71273787014297
 11
2.277173939917702
 21
-23.84453485560175
 72
     1
 10
2.277173939917702
 20
-23.84453485560175
 11
2.246250000000146
 21
-24.0
 72
     1
 10
2.246250000000146
 20
-24.0
 11
2.246250000000146
 21
-24.0
 97
        1
330
A5
 75
     0
 76
     1
 98
        0
  0
LWPOLYLINE
  5
A7
102
{ACAD_REACTORS
330
A8
102
}
330
1F
100
AcDbEntity
  8
OUTLINE
  6
CONTINUOUS
 62
     2
100
AcDbPolyline
 90
       17
 70
     1
 43
0.0
 10
2.24625
 20
-27.0
 10
2.27717394
 20
-27.155465144
 10
2.36523787
 20
-27.28726213
 10
2.497034856
 20
-27.37532606
 10
2.6525
 20
-27.40625
 10
2.807965144
 20
-27.37532606
 10
2.93976213
 20
-27.28726213
 10
3.02782606
 20
-27.155465144
 10
3.05875
 20
-27.0
 10
3.02782606
 20
-26.844534856
 10
2.93976213
 20
-26.71273787
 10
2.807965144
 20
-26.62467394
 10
2.6525
 20
-26.59375
 10
2.497034856
 20
-26.62467394
 10
2.36523787
 20
-26.71273787
 10
2.27717394
 20
-26.844534856
 10
2.24625
 20
-27.0
  0
HATCH
  5
A8
330
1F
100
AcDbEntity
  8
0
 62
     3
100
AcDbHatch
 10
0.0
 20
0.0
 30
0.0
210
0.0
220
0.0
230
1.0
  2
SOLID
 70
     1
 71
     1
 91
        1
 92
       16
 93
       17
 72
     1
 10
2.246250000000146
 20
-27.0
 11
2.277173939917702
 21
-27.15546514439825
 72
     1
 10
2.277173939917702
 20
-27.15546514439825
 11
2.365237870142664
 21
-27.28726212985703
 72
     1
 10
2.365237870142664
 20
-27.28726212985703
 11
2.497034855601669
 21
-27.37532606008267
 72
     1
 10
2.497034855601669
 20
-27.37532606008267
 11
2.652500000000146
 21
-27.40625
 72
     1
 10
2.652500000000146
 20
-27.40625
 11
2.807965144398622
 21
-27.37532606008267
 72
     1
 10
2.807965144398622
 20
-27.37532606008267
 11
2.939762129857627
 21
-27.28726212985703
 72
     1
 10
2.939762129857627
 20
-27.28726212985703
 11
3.027826060082589
 21
-27.15546514439825
 72
     1
 10
3.027826060082589
 20
-27.15546514439825
 11
3.058750000000146
 21
-27.0
 72
     1
 10
3.058750000000146
 20
-27.0
 11
3.027826060082589
 21
-26.84453485560175
 72
     1
 10
3.027826060082589
 20
-26.84453485560175
 11
2.939762129857627
 21
-26.71273787014297
 72
     1
 10
2.939762129857627
 20
-26.71273787014297
 11
2.807965144398622
 21
-26.62467393991733
 72
     1
 10
2.807965144398622
 20
-26.62467393991733
 11
2.652500000000146
 21
-26.59375
 72
     1
 10
2.652500000000146
 20
-26.59375
 11
2.497034855601669
 21
-26.62467393991733
 72
     1
 10
2.497034855601669
 20
-26.62467393991733
 11
2.365237870142664
 21
-26.71273787014297
 72
     1
 10
2.365237870142664
 20
-26.71273787014297
 11
2.277173939917702
 21
-26.84453485560175
 72
     1
 10
2.277173939917702
 20
-26.84453485560175
 11
2.246250000000146
 21
-27.0
 72
     1
 10
2.246250000000146
 20
-27.0
 11
2.246250000000146
 21
-27.0
 97
        1
330
A7
 75
     0
 76
     1
 98
        0
  0
LWPOLYLINE
  5
A9
102
{ACAD_REACTORS
330
AA
102
}
330
1F
100
AcDbEntity
  8
OUTLINE
  6
CONTINUOUS
 62
     2
100
AcDbPolyline
 90
       17
 70
     1
 43
0.0
 10
2.24625
 20
-30.0
 10
2.27717394
 20
-30.155465144
 10
2.36523787
 20
-30.28726213
 10
2.497034856
 20
-30.37532606
 10
2.6525
 20
-30.40625
 10
2.807965144
 20
-30.37532606
 10
2.93976213
 20
-30.28726213
 10
3.02782606
 20
-30.155465144
 10
3.05875
 20
-30.0
 10
3.02782606
 20
-29.844534856
 10
2.93976213
 20
-29.71273787
 10
2.807965144
 20
-29.62467394
 10
2.6525
 20
-29.59375
 10
2.497034856
 20
-29.62467394
 10
2.36523787
 20
-29.71273787
 10
2.27717394
 20
-29.844534856
 10
2.24625
 20
-30.0
  0
HATCH
  5
AA
330
1F
100
AcDbEntity
  8
0
 62
     3
100
AcDbHatch
 10
0.0
 20
0.0
 30
0.0
210
0.0
220
0.0
230
1.0
  2
SOLID
 70
     1
 71
     1
 91
        1
 92
       16
 93
       17
 72
     1
 10
2.246250000000146
 20
-30.0
 11
2.277173939917702
 21
-30.15546514439825
 72
     1
 10
2.277173939917702
 20
-30.15546514439825
 11
2.365237870142664
 21
-30.28726212985703
 72
     1
 10
2.365237870142664
 20
-30.28726212985703
 11
2.497034855601669
 21
-30.37532606008267
 72
     1
 10
2.497034855601669
 20
-30.37532606008267
 11
2.652500000000146
 21
-30.40625
 72
     1
 10
2.652500000000146
 20
-30.40625
 11
2.807965144398622
 21
-30.37532606008267
 72
     1
 10
2.807965144398622
 20
-30.37532606008267
 11
2.939762129857627
 21
-30.28726212985703
 72
     1
 10
2.939762129857627
 20
-30.28726212985703
 11
3.027826060082589
 21
-30.15546514439825
 72
     1
 10
3.027826060082589
 20
-30.15546514439825
 11
3.058750000000146
 21
-30.0
 72
     1
 10
3.058750000000146
 20
-30.0
 11
3.027826060082589
 21
-29.84453485560175
 72
     1
 10
3.027826060082589
 20
-29.84453485560175
 11
2.939762129857627
 21
-29.71273787014297
 72
     1
 10
2.939762129857627
 20
-29.71273787014297
 11
2.807965144398622
 21
-29.62467393991733
 72
     1
 10
2.807965144398622
 20
-29.62467393991733
 11
2.652500000000146
 21
-29.59375
 72
     1
 10
2.652500000000146
 20
-29.59375
 11
2.497034855601669
 21
-29.62467393991733
 72
     1
 10
2.497034855601669
 20
-29.62467393991733
 11
2.365237870142664
 21
-29.71273787014297
 72
     1
 10
2.365237870142664
 20
-29.71273787014297
 11
2.277173939917702
 21
-29.84453485560175
 72
     1
 10
2.277173939917702
 20
-29.84453485560175
 11
2.246250000000146
 21
-30.0
 72
     1
 10
2.246250000000146
 20
-30.0
 11
2.246250000000146
 21
-30.0
 97
        1
330
A9
 75
     0
 76
     1
 98
        0
  0
LWPOLYLINE
  5
AB
102
{ACAD_REACTORS
330
AC
102
}
330
1F
100
AcDbEntity
  8
OUTLINE
  6
CONTINUOUS
 62
     2
100
AcDbPolyline
 90
       17
 70
     1
 43
0.0
 10
35.94125
 20
-18.0
 10
35.97217394
 20
-18.155465144
 10
36.06023787
 20
-18.28726213
 10
36.192034856
 20
-18.37532606
 10
36.3475
 20
-18.40625
 10
36.502965144
 20
-18.37532606
 10
36.63476213
 20
-18.28726213
 10
36.72282606
 20
-18.155465144
 10
36.75375
 20
-18.0
 10
36.72282606
 20
-17.844534856
 10
36.63476213
 20
-17.71273787
 10
36.502965144
 20
-17.62467394
 10
36.3475
 20
-17.59375
 10
36.192034856
 20
-17.62467394
 10
36.06023787
 20
-17.71273787
 10
35.97217394
 20
-17.844534856
 10
35.94125
 20
-18.0
  0
HATCH
  5
AC
330
1F
100
AcDbEntity
  8
0
 62
     3
100
AcDbHatch
 10
0.0
 20
0.0
 30
0.0
210
0.0
220
0.0
230
1.0
  2
SOLID
 70
     1
 71
     1
 91
        1
 92
       16
 93
       17
 72
     1
 10
35.94124999999985
 20
-18.0
 11
35.97217393991741
 21
-18.15546514439825
 72
     1
 10
35.97217393991741
 20
-18.15546514439825
 11
36.06023787014237
 21
-18.28726212985703
 72
     1
 10
36.06023787014237
 20
-18.28726212985703
 11
36.19203485560138
 21
-18.37532606008267
 72
     1
 10
36.19203485560138
 20
-18.37532606008267
 11
36.34749999999985
 21
-18.40625
 72
     1
 10
36.34749999999985
 20
-18.40625
 11
36.50296514439833
 21
-18.37532606008267
 72
     1
 10
36.50296514439833
 20
-18.37532606008267
 11
36.63476212985734
 21
-18.28726212985703
 72
     1
 10
36.63476212985734
 20
-18.28726212985703
 11
36.7228260600823
 21
-18.15546514439825
 72
     1
 10
36.7228260600823
 20
-18.15546514439825
 11
36.75374999999985
 21
-18.0
 72
     1
 10
36.75374999999985
 20
-18.0
 11
36.7228260600823
 21
-17.84453485560175
 72
     1
 10
36.7228260600823
 20
-17.84453485560175
 11
36.63476212985734
 21
-17.71273787014297
 72
     1
 10
36.63476212985734
 20
-17.71273787014297
 11
36.50296514439833
 21
-17.62467393991733
 72
     1
 10
36.50296514439833
 20
-17.62467393991733
 11
36.34749999999985
 21
-17.59375
 72
     1
 10
36.34749999999985
 20
-17.59375
 11
36.19203485560138
 21
-17.62467393991733
 72
     1
 10
36.19203485560138
 20
-17.62467393991733
 11
36.06023787014237
 21
-17.71273787014297
 72
     1
 10
36.06023787014237
 20
-17.71273787014297
 11
35.97217393991741
 21
-17.84453485560175
 72
     1
 10
35.97217393991741
 20
-17.84453485560175
 11
35.94124999999985
 21
-18.0
 72
     1
 10
35.94124999999985
 20
-18.0
 11
35.94124999999985
 21
-18.0
 97
        1
330
AB
 75
     0
 76
     1
 98
        0
  0
LWPOLYLINE
  5
AD
102
{ACAD_REACTORS
330
AE
102
}
330
1F
100
AcDbEntity
  8
OUTLINE
  6
CONTINUOUS
 62
     2
100
AcDbPolyline
 90
       17
 70
     1
 43
0.0
 10
35.94125
 20
-21.0
 10
35.97217394
 20
-21.155465144
 10
36.06023787
 20
-21.28726213
 10
36.192034856
 20
-21.37532606
 10
36.3475
 20
-21.40625
 10
36.502965144
 20
-21.37532606
 10
36.63476213
 20
-21.28726213
 10
36.72282606
 20
-21.155465144
 10
36.75375
 20
-21.0
 10
36.72282606
 20
-20.844534856
 10
36.63476213
 20
-20.71273787
 10
36.502965144
 20
-20.62467394
 10
36.3475
 20
-20.59375
 10
36.192034856
 20
-20.62467394
 10
36.06023787
 20
-20.71273787
 10
35.97217394
 20
-20.844534856
 10
35.94125
 20
-21.0
  0
HATCH
  5
AE
330
1F
100
AcDbEntity
  8
0
 62
     3
100
AcDbHatch
 10
0.0
 20
0.0
 30
0.0
210
0.0
220
0.0
230
1.0
  2
SOLID
 70
     1
 71
     1
 91
        1
 92
       16
 93
       17
 72
     1
 10
35.94124999999985
 20
-21.0
 11
35.97217393991741
 21
-21.15546514439825
 72
     1
 10
35.97217393991741
 20
-21.15546514439825
 11
36.06023787014237
 21
-21.28726212985703
 72
     1
 10
36.06023787014237
 20
-21.28726212985703
 11
36.19203485560138
 21
-21.37532606008267
 72
     1
 10
36.19203485560138
 20
-21.37532606008267
 11
36.34749999999985
 21
-21.40625
 72
     1
 10
36.34749999999985
 20
-21.40625
 11
36.50296514439833
 21
-21.37532606008267
 72
     1
 10
36.50296514439833
 20
-21.37532606008267
 11
36.63476212985734
 21
-21.28726212985703
 72
     1
 10
36.63476212985734
 20
-21.28726212985703
 11
36.7228260600823
 21
-21.15546514439825
 72
     1
 10
36.7228260600823
 20
-21.15546514439825
 11
36.75374999999985
 21
-21.0
 72
     1
 10
36.75374999999985
 20
-21.0
 11
36.7228260600823
 21
-20.84453485560175
 72
     1
 10
36.7228260600823
 20
-20.84453485560175
 11
36.63476212985734
 21
-20.71273787014297
 72
     1
 10
36.63476212985734
 20
-20.71273787014297
 11
36.50296514439833
 21
-20.62467393991733
 72
     1
 10
36.50296514439833
 20
-20.62467393991733
 11
36.34749999999985
 21
-20.59375
 72
     1
 10
36.34749999999985
 20
-20.59375
 11
36.19203485560138
 21
-20.62467393991733
 72
     1
 10
36.19203485560138
 20
-20.62467393991733
 11
36.06023787014237
 21
-20.71273787014297
 72
     1
 10
36.06023787014237
 20
-20.71273787014297
 11
35.97217393991741
 21
-20.84453485560175
 72
     1
 10
35.97217393991741
 20
-20.84453485560175
 11
35.94124999999985
 21
-21.0
 72
     1
 10
35.94124999999985
 20
-21.0
 11
35.94124999999985
 21
-21.0
 97
        1
330
AD
 75
     0
 76
     1
 98
        0
  0
LWPOLYLINE
  5
AF
102
{ACAD_REACTORS
330
B0
102
}
330
1F
100
AcDbEntity
  8
OUTLINE
  6
CONTINUOUS
 62
     2
100
AcDbPolyline
 90
       17
 70
     1
 43
0.0
 10
35.94125
 20
-24.0
 10
35.97217394
 20
-24.155465144
 10
36.06023787
 20
-24.28726213
 10
36.192034856
 20
-24.37532606
 10
36.3475
 20
-24.40625
 10
36.502965144
 20
-24.37532606
 10
36.63476213
 20
-24.28726213
 10
36.72282606
 20
-24.155465144
 10
36.75375
 20
-24.0
 10
36.72282606
 20
-23.844534856
 10
36.63476213
 20
-23.71273787
 10
36.502965144
 20
-23.62467394
 10
36.3475
 20
-23.59375
 10
36.192034856
 20
-23.62467394
 10
36.06023787
 20
-23.71273787
 10
35.97217394
 20
-23.844534856
 10
35.94125
 20
-24.0
  0
HATCH
  5
B0
330
1F
100
AcDbEntity
  8
0
 62
     3
100
AcDbHatch
 10
0.0
 20
0.0
 30
0.0
210
0.0
220
0.0
230
1.0
  2
SOLID
 70
     1
 71
     1
 91
        1
 92
       16
 93
       17
 72
     1
 10
35.94124999999985
 20
-24.0
 11
35.97217393991741
 21
-24.15546514439825
 72
     1
 10
35.97217393991741
 20
-24.15546514439825
 11
36.06023787014237
 21
-24.28726212985703
 72
     1
 10
36.06023787014237
 20
-24.28726212985703
 11
36.19203485560138
 21
-24.37532606008267
 72
     1
 10
36.19203485560138
 20
-24.37532606008267
 11
36.34749999999985
 21
-24.40625
 72
     1
 10
36.34749999999985
 20
-24.40625
 11
36.50296514439833
 21
-24.37532606008267
 72
     1
 10
36.50296514439833
 20
-24.37532606008267
 11
36.63476212985734
 21
-24.28726212985703
 72
     1
 10
36.63476212985734
 20
-24.28726212985703
 11
36.7228260600823
 21
-24.15546514439825
 72
     1
 10
36.7228260600823
 20
-24.15546514439825
 11
36.75374999999985
 21
-24.0
 72
     1
 10
36.75374999999985
 20
-24.0
 11
36.7228260600823
 21
-23.84453485560175
 72
     1
 10
36.7228260600823
 20
-23.84453485560175
 11
36.63476212985734
 21
-23.71273787014297
 72
     1
 10
36.63476212985734
 20
-23.71273787014297
 11
36.50296514439833
 21
-23.62467393991733
 72
     1
 10
36.50296514439833
 20
-23.62467393991733
 11
36.34749999999985
 21
-23.59375
 72
     1
 10
36.34749999999985
 20
-23.59375
 11
36.19203485560138
 21
-23.62467393991733
 72
     1
 10
36.19203485560138
 20
-23.62467393991733
 11
36.06023787014237
 21
-23.71273787014297
 72
     1
 10
36.06023787014237
 20
-23.71273787014297
 11
35.97217393991741
 21
-23.84453485560175
 72
     1
 10
35.97217393991741
 20
-23.84453485560175
 11
35.94124999999985
 21
-24.0
 72
     1
 10
35.94124999999985
 20
-24.0
 11
35.94124999999985
 21
-24.0
 97
        1
330
AF
 75
     0
 76
     1
 98
        0
  0
LWPOLYLINE
  5
B1
102
{ACAD_REACTORS
330
B2
102
}
330
1F
100
AcDbEntity
  8
OUTLINE
  6
CONTINUOUS
 62
     2
100
AcDbPolyline
 90
       17
 70
     1
 43
0.0
 10
35.94125
 20
-27.0
 10
35.97217394
 20
-27.155465144
 10
36.06023787
 20
-27.28726213
 10
36.192034856
 20
-27.37532606
 10
36.3475
 20
-27.40625
 10
36.502965144
 20
-27.37532606
 10
36.63476213
 20
-27.28726213
 10
36.72282606
 20
-27.155465144
 10
36.75375
 20
-27.0
 10
36.72282606
 20
-26.844534856
 10
36.63476213
 20
-26.71273787
 10
36.502965144
 20
-26.62467394
 10
36.3475
 20
-26.59375
 10
36.192034856
 20
-26.62467394
 10
36.06023787
 20
-26.71273787
 10
35.97217394
 20
-26.844534856
 10
35.94125
 20
-27.0
  0
HATCH
  5
B2
330
1F
100
AcDbEntity
  8
0
 62
     3
100
AcDbHatch
 10
0.0
 20
0.0
 30
0.0
210
0.0
220
0.0
230
1.0
  2
SOLID
 70
     1
 71
     1
 91
        1
 92
       16
 93
       17
 72
     1
 10
35.94124999999985
 20
-27.0
 11
35.97217393991741
 21
-27.15546514439825
 72
     1
 10
35.97217393991741
 20
-27.15546514439825
 11
36.06023787014237
 21
-27.28726212985703
 72
     1
 10
36.06023787014237
 20
-27.28726212985703
 11
36.19203485560138
 21
-27.37532606008267
 72
     1
 10
36.19203485560138
 20
-27.37532606008267
 11
36.34749999999985
 21
-27.40625
 72
     1
 10
36.34749999999985
 20
-27.40625
 11
36.50296514439833
 21
-27.37532606008267
 72
     1
 10
36.50296514439833
 20
-27.37532606008267
 11
36.63476212985734
 21
-27.28726212985703
 72
     1
 10
36.63476212985734
 20
-27.28726212985703
 11
36.7228260600823
 21
-27.15546514439825
 72
     1
 10
36.7228260600823
 20
-27.15546514439825
 11
36.75374999999985
 21
-27.0
 72
     1
 10
36.75374999999985
 20
-27.0
 11
36.7228260600823
 21
-26.84453485560175
 72
     1
 10
36.7228260600823
 20
-26.84453485560175
 11
36.63476212985734
 21
-26.71273787014297
 72
     1
 10
36.63476212985734
 20
-26.71273787014297
 11
36.50296514439833
 21
-26.62467393991733
 72
     1
 10
36.50296514439833
 20
-26.62467393991733
 11
36.34749999999985
 21
-26.59375
 72
     1
 10
36.34749999999985
 20
-26.59375
 11
36.19203485560138
 21
-26.62467393991733
 72
     1
 10
36.19203485560138
 20
-26.62467393991733
 11
36.06023787014237
 21
-26.71273787014297
 72
     1
 10
36.06023787014237
 20
-26.71273787014297
 11
35.97217393991741
 21
-26.84453485560175
 72
     1
 10
35.97217393991741
 20
-26.84453485560175
 11
35.94124999999985
 21
-27.0
 72
     1
 10
35.94124999999985
 20
-27.0
 11
35.94124999999985
 21
-27.0
 97
        1
330
B1
 75
     0
 76
     1
 98
        0
  0
LWPOLYLINE
  5
B3
102
{ACAD_REACTORS
330
B4
102
}
330
1F
100
AcDbEntity
  8
OUTLINE
  6
CONTINUOUS
 62
     2
100
AcDbPolyline
 90
       17
 70
     1
 43
0.0
 10
35.94125
 20
-30.0
 10
35.97217394
 20
-30.155465144
 10
36.06023787
 20
-30.28726213
 10
36.192034856
 20
-30.37532606
 10
36.3475
 20
-30.40625
 10
36.502965144
 20
-30.37532606
 10
36.63476213
 20
-30.28726213
 10
36.72282606
 20
-30.155465144
 10
36.75375
 20
-30.0
 10
36.72282606
 20
-29.844534856
 10
36.63476213
 20
-29.71273787
 10
36.502965144
 20
-29.62467394
 10
36.3475
 20
-29.59375
 10
36.192034856
 20
-29.62467394
 10
36.06023787
 20
-29.71273787
 10
35.97217394
 20
-29.844534856
 10
35.94125
 20
-30.0
  0
HATCH
  5
B4
330
1F
100
AcDbEntity
  8
0
 62
     3
100
AcDbHatch
 10
0.0
 20
0.0
 30
0.0
210
0.0
220
0.0
230
1.0
  2
SOLID
 70
     1
 71
     1
 91
        1
 92
       16
 93
       17
 72
     1
 10
35.94124999999985
 20
-30.0
 11
35.97217393991741
 21
-30.15546514439825
 72
     1
 10
35.97217393991741
 20
-30.15546514439825
 11
36.06023787014237
 21
-30.28726212985703
 72
     1
 10
36.06023787014237
 20
-30.28726212985703
 11
36.19203485560138
 21
-30.37532606008267
 72
     1
 10
36.19203485560138
 20
-30.37532606008267
 11
36.34749999999985
 21
-30.40625
 72
     1
 10
36.34749999999985
 20
-30.40625
 11
36.50296514439833
 21
-30.37532606008267
 72
     1
 10
36.50296514439833
 20
-30.37532606008267
 11
36.63476212985734
 21
-30.28726212985703
 72
     1
 10
36.63476212985734
 20
-30.28726212985703
 11
36.7228260600823
 21
-30.15546514439825
 72
     1
 10
36.7228260600823
 20
-30.15546514439825
 11
36.75374999999985
 21
-30.0
 72
     1
 10
36.75374999999985
 20
-30.0
 11
36.7228260600823
 21
-29.84453485560175
 72
     1
 10
36.7228260600823
 20
-29.84453485560175
 11
36.63476212985734
 21
-29.71273787014297
 72
     1
 10
36.63476212985734
 20
-29.71273787014297
 11
36.50296514439833
 21
-29.62467393991733
 72
     1
 10
36.50296514439833
 20
-29.62467393991733
 11
36.34749999999985
 21
-29.59375
 72
     1
 10
36.34749999999985
 20
-29.59375
 11
36.19203485560138
 21
-29.62467393991733
 72
     1
 10
36.19203485560138
 20
-29.62467393991733
 11
36.06023787014237
 21
-29.71273787014297
 72
     1
 10
36.06023787014237
 20
-29.71273787014297
 11
35.97217393991741
 21
-29.84453485560175
 72
     1
 10
35.97217393991741
 20
-29.84453485560175
 11
35.94124999999985
 21
-30.0
 72
     1
 10
35.94124999999985
 20
-30.0
 11
35.94124999999985
 21
-30.0
 97
        1
330
B3
 75
     0
 76
     1
 98
        0
  0
MTEXT
  5
B6
330
1F
100
AcDbEntity
  8
SYSTEM_ANNOTATION
  6
CONTINUOUS
 62
     1
100
AcDbMText
 10
-3.214716277
 20
-2.977311903
 30
0.0
 40
1.238613333
 41
0.0
 71
     7
 72
     1
  1
\A1;3{\H0.70x;\S1#4;}
  7
ARIAL
  0
LINE
  5
B7
330
1F
100
AcDbEntity
  8
SYSTEM_ANNOTATION
  6
CONTINUOUS
 62
     1
100
AcDbLine
 10
0.6875
 20
-16.0
 30
0.0
 11
0.6875
 21
-3.167867801
 31
0.0
  0
LINE
  5
B8
330
1F
100
AcDbEntity
  8
SYSTEM_ANNOTATION
  6
CONTINUOUS
 62
     1
100
AcDbLine
 10
0.6875
 20
-3.167867801
 30
0.0
 11
-3.214716277
 21
-3.167867801
 31
0.0
  0
LINE
  5
B9
330
1F
100
AcDbEntity
  8
SYSTEM_ANNOTATION
  6
CONTINUOUS
 62
     1
100
AcDbLine
 10
0.6875
 20
-3.167867801
 30
0.0
 11
0.451279528
 21
-3.404088273
 31
0.0
  0
LINE
  5
BA
330
1F
100
AcDbEntity
  8
SYSTEM_ANNOTATION
  6
CONTINUOUS
 62
     1
100
AcDbLine
 10
0.451279528
 20
-3.404088273
 30
0.0
 11
0.923720472
 21
-2.931647328
 31
0.0
  0
LINE
  5
BB
330
1F
100
AcDbEntity
  8
SYSTEM_ANNOTATION
  6
CONTINUOUS
 62
     1
100
AcDbLine
 10
0.923720472
 20
-2.931647328
 30
0.0
 11
0.6875
 21
-3.167867801
 31
0.0
  0
LINE
  5
BC
330
1F
100
AcDbEntity
  8
SYSTEM_ANNOTATION
  6
CONTINUOUS
 62
     1
100
AcDbLine
 10
0.6875
 20
-3.167867801
 30
0.0
 11
3.9375
 21
-3.167867801
 31
0.0
  0
LINE
  5
BD
330
1F
100
AcDbEntity
  8
SYSTEM_ANNOTATION
  6
CONTINUOUS
 62
     1
100
AcDbLine
 10
3.9375
 20
-3.167867801
 30
0.0
 11
3.701279528
 21
-3.404088273
 31
0.0
  0
LINE
  5
BE
330
1F
100
AcDbEntity
  8
SYSTEM_ANNOTATION
  6
CONTINUOUS
 62
     1
100
AcDbLine
 10
3.701279528
 20
-3.404088273
 30
0.0
 11
4.173720472
 21
-2.931647328
 31
0.0
  0
LINE
  5
BF
330
1F
100
AcDbEntity
  8
SYSTEM_ANNOTATION
  6
CONTINUOUS
 62
     1
100
AcDbLine
 10
4.173720472
 20
-2.931647328
 30
0.0
 11
3.9375
 21
-3.167867801
 31
0.0
  0
LINE
  5
C0
330
1F
100
AcDbEntity
  8
SYSTEM_ANNOTATION
  6
CONTINUOUS
 62
     1
100
AcDbLine
 10
3.9375
 20
-14.75
 30
0.0
 11
3.9375
 21
-3.167867801
 31
0.0
  0
MTEXT
  5
C1
330
1F
100
AcDbEntity
  8
SYSTEM_ANNOTATION
  6
CONTINUOUS
 62
     1
100
AcDbMText
 10
-3.990555897
 20
-14.25
 30
0.0
 40
1.238613333
 41
0.0
 71
     7
 72
     1
  1
\A1;1{\H0.70x;\S1#4;}
  7
ARIAL
 11
6.123031769111886E-17
 21
1.0
 31
0.0
  0
LINE
  5
C2
330
1F
100
AcDbEntity
  8
SYSTEM_ANNOTATION
  6
CONTINUOUS
 62
     1
100
AcDbLine
 10
3.6875
 20
-15.0
 30
0.0
 11
-3.8
 21
-15.0
 31
0.0
  0
LINE
  5
C3
330
1F
100
AcDbEntity
  8
SYSTEM_ANNOTATION
  6
CONTINUOUS
 62
     1
100
AcDbLine
 10
-3.8
 20
-15.0
 30
0.0
 11
-3.8
 21
-11.559470872
 31
0.0
  0
LINE
  5
C4
330
1F
100
AcDbEntity
  8
SYSTEM_ANNOTATION
  6
CONTINUOUS
 62
     1
100
AcDbLine
 10
-3.8
 20
-15.0
 30
0.0
 11
-4.036220472
 21
-14.763779528
 31
0.0
  0
LINE
  5
C5
330
1F
100
AcDbEntity
  8
SYSTEM_ANNOTATION
  6
CONTINUOUS
 62
     1
100
AcDbLine
 10
-4.036220472
 20
-14.763779528
 30
0.0
 11
-3.563779528
 21
-15.236220472
 31
0.0
  0
LINE
  5
C6
330
1F
100
AcDbEntity
  8
SYSTEM_ANNOTATION
  6
CONTINUOUS
 62
     1
100
AcDbLine
 10
-3.563779528
 20
-15.236220472
 30
0.0
 11
-3.8
 21
-15.0
 31
0.0
  0
LINE
  5
C7
330
1F
100
AcDbEntity
  8
SYSTEM_ANNOTATION
  6
CONTINUOUS
 62
     1
100
AcDbLine
 10
-3.8
 20
-15.0
 30
0.0
 11
-3.8
 21
-16.25
 31
0.0
  0
LINE
  5
C8
330
1F
100
AcDbEntity
  8
SYSTEM_ANNOTATION
  6
CONTINUOUS
 62
     1
100
AcDbLine
 10
-3.8
 20
-16.25
 30
0.0
 11
-3.8
 21
-16.25
 31
0.0
  0
LINE
  5
C9
330
1F
100
AcDbEntity
  8
SYSTEM_ANNOTATION
  6
CONTINUOUS
 62
     1
100
AcDbLine
 10
-3.8
 20
-16.25
 30
0.0
 11
-4.036220472
 21
-16.013779528
 31
0.0
  0
LINE
  5
CA
330
1F
100
AcDbEntity
  8
SYSTEM_ANNOTATION
  6
CONTINUOUS
 62
     1
100
AcDbLine
 10
-4.036220472
 20
-16.013779528
 30
0.0
 11
-3.563779528
 21
-16.486220472
 31
0.0
  0
LINE
  5
CB
330
1F
100
AcDbEntity
  8
SYSTEM_ANNOTATION
  6
CONTINUOUS
 62
     1
100
AcDbLine
 10
-3.563779528
 20
-16.486220472
 30
0.0
 11
-3.8
 21
-16.25
 31
0.0
  0
LINE
  5
CC
330
1F
100
AcDbEntity
  8
SYSTEM_ANNOTATION
  6
CONTINUOUS
 62
     1
100
AcDbLine
 10
0.4375
 20
-16.25
 30
0.0
 11
-3.8
 21
-16.25
 31
0.0
  0
MTEXT
  5
CD
330
1F
100
AcDbEntity
  8
SYSTEM_ANNOTATION
  6
CONTINUOUS
 62
     1
100
AcDbMText
 10
-2.753029128
 20
-41.409444103
 30
0.0
 40
1.238613333
 41
0.0
 71
     7
 72
     1
  1
\A1;3{\H0.70x;\S1#4;}
  7
ARIAL
  0
LINE
  5
CE
330
1F
100
AcDbEntity
  8
SYSTEM_ANNOTATION
  6
CONTINUOUS
 62
     1
100
AcDbLine
 10
0.6875
 20
-34.7
 30
0.0
 11
0.6875
 21
-41.6
 31
0.0
  0
LINE
  5
CF
330
1F
100
AcDbEntity
  8
SYSTEM_ANNOTATION
  6
CONTINUOUS
 62
     1
100
AcDbLine
 10
0.6875
 20
-41.6
 30
0.0
 11
-2.753029128
 21
-41.6
 31
0.0
  0
LINE
  5
D0
330
1F
100
AcDbEntity
  8
SYSTEM_ANNOTATION
  6
CONTINUOUS
 62
     1
100
AcDbLine
 10
0.6875
 20
-41.6
 30
0.0
 11
0.451279528
 21
-41.836220472
 31
0.0
  0
LINE
  5
D1
330
1F
100
AcDbEntity
  8
SYSTEM_ANNOTATION
  6
CONTINUOUS
 62
     1
100
AcDbLine
 10
0.451279528
 20
-41.836220472
 30
0.0
 11
0.923720472
 21
-41.363779528
 31
0.0
  0
LINE
  5
D2
330
1F
100
AcDbEntity
  8
SYSTEM_ANNOTATION
  6
CONTINUOUS
 62
     1
100
AcDbLine
 10
0.923720472
 20
-41.363779528
 30
0.0
 11
0.6875
 21
-41.6
 31
0.0
  0
LINE
  5
D3
330
1F
100
AcDbEntity
  8
SYSTEM_ANNOTATION
  6
CONTINUOUS
 62
     1
100
AcDbLine
 10
0.6875
 20
-41.6
 30
0.0
 11
3.9375
 21
-41.6
 31
0.0
  0
LINE
  5
D4
330
1F
100
AcDbEntity
  8
SYSTEM_ANNOTATION
  6
CONTINUOUS
 62
     1
100
AcDbLine
 10
3.9375
 20
-41.6
 30
0.0
 11
3.701279528
 21
-41.836220472
 31
0.0
  0
LINE
  5
D5
330
1F
100
AcDbEntity
  8
SYSTEM_ANNOTATION
  6
CONTINUOUS
 62
     1
100
AcDbLine
 10
3.701279528
 20
-41.836220472
 30
0.0
 11
4.173720472
 21
-41.363779528
 31
0.0
  0
LINE
  5
D6
330
1F
100
AcDbEntity
  8
SYSTEM_ANNOTATION
  6
CONTINUOUS
 62
     1
100
AcDbLine
 10
4.173720472
 20
-41.363779528
 30
0.0
 11
3.9375
 21
-41.6
 31
0.0
  0
LINE
  5
D7
330
1F
100
AcDbEntity
  8
SYSTEM_ANNOTATION
  6
CONTINUOUS
 62
     1
100
AcDbLine
 10
3.9375
 20
-35.95
 30
0.0
 11
3.9375
 21
-41.6
 31
0.0
  0
MTEXT
  5
D8
330
1F
100
AcDbEntity
  8
SYSTEM_ANNOTATION
  6
CONTINUOUS
 62
     1
100
AcDbMText
 10
-3.990555897
 20
-39.140529128
 30
0.0
 40
1.238613333
 41
0.0
 71
     7
 72
     1
  1
\A1;1{\H0.70x;\S1#4;}
  7
ARIAL
 11
6.123031769111886E-17
 21
1.0
 31
0.0
  0
LINE
  5
D9
330
1F
100
AcDbEntity
  8
SYSTEM_ANNOTATION
  6
CONTINUOUS
 62
     1
100
AcDbLine
 10
3.6875
 20
-35.7
 30
0.0
 11
-3.8
 21
-35.7
 31
0.0
  0
LINE
  5
DA
330
1F
100
AcDbEntity
  8
SYSTEM_ANNOTATION
  6
CONTINUOUS
 62
     1
100
AcDbLine
 10
-3.8
 20
-35.7
 30
0.0
 11
-3.8
 21
-39.140529128
 31
0.0
  0
LINE
  5
DB
330
1F
100
AcDbEntity
  8
SYSTEM_ANNOTATION
  6
CONTINUOUS
 62
     1
100
AcDbLine
 10
-3.8
 20
-35.7
 30
0.0
 11
-3.563779528
 21
-35.936220472
 31
0.0
  0
LINE
  5
DC
330
1F
100
AcDbEntity
  8
SYSTEM_ANNOTATION
  6
CONTINUOUS
 62
     1
100
AcDbLine
 10
-3.563779528
 20
-35.936220472
 30
0.0
 11
-4.036220472
 21
-35.463779528
 31
0.0
  0
LINE
  5
DD
330
1F
100
AcDbEntity
  8
SYSTEM_ANNOTATION
  6
CONTINUOUS
 62
     1
100
AcDbLine
 10
-4.036220472
 20
-35.463779528
 30
0.0
 11
-3.8
 21
-35.7
 31
0.0
  0
LINE
  5
DE
330
1F
100
AcDbEntity
  8
SYSTEM_ANNOTATION
  6
CONTINUOUS
 62
     1
100
AcDbLine
 10
-3.8
 20
-35.7
 30
0.0
 11
-3.8
 21
-34.45
 31
0.0
  0
LINE
  5
DF
330
1F
100
AcDbEntity
  8
SYSTEM_ANNOTATION
  6
CONTINUOUS
 62
     1
100
AcDbLine
 10
-3.8
 20
-34.45
 30
0.0
 11
-3.8
 21
-34.45
 31
0.0
  0
LINE
  5
E0
330
1F
100
AcDbEntity
  8
SYSTEM_ANNOTATION
  6
CONTINUOUS
 62
     1
100
AcDbLine
 10
-3.8
 20
-34.45
 30
0.0
 11
-3.563779528
 21
-34.686220472
 31
0.0
  0
LINE
  5
E1
330
1F
100
AcDbEntity
  8
SYSTEM_ANNOTATION
  6
CONTINUOUS
 62
     1
100
AcDbLine
 10
-3.563779528
 20
-34.686220472
 30
0.0
 11
-4.036220472
 21
-34.213779528
 31
0.0
  0
LINE
  5
E2
330
1F
100
AcDbEntity
  8
SYSTEM_ANNOTATION
  6
CONTINUOUS
 62
     1
100
AcDbLine
 10
-4.036220472
 20
-34.213779528
 30
0.0
 11
-3.8
 21
-34.45
 31
0.0
  0
LINE
  5
E3
330
1F
100
AcDbEntity
  8
SYSTEM_ANNOTATION
  6
CONTINUOUS
 62
     1
100
AcDbLine
 10
0.4375
 20
-34.45
 30
0.0
 11
-3.8
 21
-34.45
 31
0.0
  0
TEXT
  5
E4
330
1F
100
AcDbEntity
  8
SYSTEM_ANNOTATION
  6
CONTINUOUS
 62
     1
100
AcDbText
 10
36.436337002
 20
-1.312852582
 30
0.0
 40
1.238613333
  1
4
 41
0.8
  7
ARIAL
100
AcDbText
  0
LINE
  5
E5
330
1F
100
AcDbEntity
  8
SYSTEM_ANNOTATION
  6
CONTINUOUS
 62
     1
100
AcDbLine
 10
38.3125
 20
-16.0
 30
0.0
 11
38.3125
 21
-1.789242326
 31
0.0
  0
LINE
  5
E6
330
1F
100
AcDbEntity
  8
SYSTEM_ANNOTATION
  6
CONTINUOUS
 62
     1
100
AcDbLine
 10
38.3125
 20
-1.789242326
 30
0.0
 11
38.548720472
 21
-1.553021853
 31
0.0
  0
LINE
  5
E7
330
1F
100
AcDbEntity
  8
SYSTEM_ANNOTATION
  6
CONTINUOUS
 62
     1
100
AcDbLine
 10
38.548720472
 20
-1.553021853
 30
0.0
 11
38.076279528
 21
-2.025462798
 31
0.0
  0
LINE
  5
E8
330
1F
100
AcDbEntity
  8
SYSTEM_ANNOTATION
  6
CONTINUOUS
 62
     1
100
AcDbLine
 10
38.076279528
 20
-2.025462798
 30
0.0
 11
38.3125
 21
-1.789242326
 31
0.0
  0
LINE
  5
E9
330
1F
100
AcDbEntity
  8
SYSTEM_ANNOTATION
  6
CONTINUOUS
 62
     1
100
AcDbLine
 10
38.3125
 20
-1.789242326
 30
0.0
 11
34.3125
 21
-1.789242326
 31
0.0
  0
LINE
  5
EA
330
1F
100
AcDbEntity
  8
SYSTEM_ANNOTATION
  6
CONTINUOUS
 62
     1
100
AcDbLine
 10
34.3125
 20
-1.789242326
 30
0.0
 11
34.548720472
 21
-1.553021853
 31
0.0
  0
LINE
  5
EB
330
1F
100
AcDbEntity
  8
SYSTEM_ANNOTATION
  6
CONTINUOUS
 62
     1
100
AcDbLine
 10
34.548720472
 20
-1.553021853
 30
0.0
 11
34.076279528
 21
-2.025462798
 31
0.0
  0
LINE
  5
EC
330
1F
100
AcDbEntity
  8
SYSTEM_ANNOTATION
  6
CONTINUOUS
 62
     1
100
AcDbLine
 10
34.076279528
 20
-2.025462798
 30
0.0
 11
34.3125
 21
-1.789242326
 31
0.0
  0
LINE
  5
ED
330
1F
100
AcDbEntity
  8
SYSTEM_ANNOTATION
  6
CONTINUOUS
 62
     1
100
AcDbLine
 10
34.3125
 20
-14.75
 30
0.0
 11
34.3125
 21
-1.789242326
 31
0.0
  0
MTEXT
  5
EE
330
1F
100
AcDbEntity
  8
SYSTEM_ANNOTATION
  6
CONTINUOUS
 62
     1
100
AcDbMText
 10
42.409444103
 20
-14.25
 30
0.0
 40
1.238613333
 41
0.0
 71
     7
 72
     1
  1
\A1;1{\H0.70x;\S1#4;}
  7
ARIAL
 11
6.123031769111886E-17
 21
1.0
 31
0.0
  0
LINE
  5
EF
330
1F
100
AcDbEntity
  8
SYSTEM_ANNOTATION
  6
CONTINUOUS
 62
     1
100
AcDbLine
 10
34.5625
 20
-15.0
 30
0.0
 11
42.6
 21
-15.0
 31
0.0
  0
LINE
  5
F0
330
1F
100
AcDbEntity
  8
SYSTEM_ANNOTATION
  6
CONTINUOUS
 62
     1
100
AcDbLine
 10
42.6
 20
-15.0
 30
0.0
 11
42.6
 21
-11.559470872
 31
0.0
  0
LINE
  5
F1
330
1F
100
AcDbEntity
  8
SYSTEM_ANNOTATION
  6
CONTINUOUS
 62
     1
100
AcDbLine
 10
42.6
 20
-15.0
 30
0.0
 11
42.363779528
 21
-14.763779528
 31
0.0
  0
LINE
  5
F2
330
1F
100
AcDbEntity
  8
SYSTEM_ANNOTATION
  6
CONTINUOUS
 62
     1
100
AcDbLine
 10
42.363779528
 20
-14.763779528
 30
0.0
 11
42.836220472
 21
-15.236220472
 31
0.0
  0
LINE
  5
F3
330
1F
100
AcDbEntity
  8
SYSTEM_ANNOTATION
  6
CONTINUOUS
 62
     1
100
AcDbLine
 10
42.836220472
 20
-15.236220472
 30
0.0
 11
42.6
 21
-15.0
 31
0.0
  0
LINE
  5
F4
330
1F
100
AcDbEntity
  8
SYSTEM_ANNOTATION
  6
CONTINUOUS
 62
     1
100
AcDbLine
 10
42.6
 20
-15.0
 30
0.0
 11
42.6
 21
-16.25
 31
0.0
  0
LINE
  5
F5
330
1F
100
AcDbEntity
  8
SYSTEM_ANNOTATION
  6
CONTINUOUS
 62
     1
100
AcDbLine
 10
42.6
 20
-16.25
 30
0.0
 11
42.6
 21
-16.25
 31
0.0
  0
LINE
  5
F6
330
1F
100
AcDbEntity
  8
SYSTEM_ANNOTATION
  6
CONTINUOUS
 62
     1
100
AcDbLine
 10
42.6
 20
-16.25
 30
0.0
 11
42.363779528
 21
-16.013779528
 31
0.0
  0
LINE
  5
F7
330
1F
100
AcDbEntity
  8
SYSTEM_ANNOTATION
  6
CONTINUOUS
 62
     1
100
AcDbLine
 10
42.363779528
 20
-16.013779528
 30
0.0
 11
42.836220472
 21
-16.486220472
 31
0.0
  0
LINE
  5
F8
330
1F
100
AcDbEntity
  8
SYSTEM_ANNOTATION
  6
CONTINUOUS
 62
     1
100
AcDbLine
 10
42.836220472
 20
-16.486220472
 30
0.0
 11
42.6
 21
-16.25
 31
0.0
  0
LINE
  5
F9
330
1F
100
AcDbEntity
  8
SYSTEM_ANNOTATION
  6
CONTINUOUS
 62
     1
100
AcDbLine
 10
38.5625
 20
-16.25
 30
0.0
 11
42.6
 21
-16.25
 31
0.0
  0
TEXT
  5
FA
330
1F
100
AcDbEntity
  8
SYSTEM_ANNOTATION
  6
CONTINUOUS
 62
     1
100
AcDbText
 10
35.881963932
 20
-41.123610256
 30
0.0
 40
1.238613333
  1
4
 41
0.8
  7
ARIAL
100
AcDbText
  0
LINE
  5
FB
330
1F
100
AcDbEntity
  8
SYSTEM_ANNOTATION
  6
CONTINUOUS
 62
     1
100
AcDbLine
 10
38.3125
 20
-34.7
 30
0.0
 11
38.3125
 21
-41.6
 31
0.0
  0
LINE
  5
FC
330
1F
100
AcDbEntity
  8
SYSTEM_ANNOTATION
  6
CONTINUOUS
 62
     1
100
AcDbLine
 10
38.3125
 20
-41.6
 30
0.0
 11
38.548720472
 21
-41.363779528
 31
0.0
  0
LINE
  5
FD
330
1F
100
AcDbEntity
  8
SYSTEM_ANNOTATION
  6
CONTINUOUS
 62
     1
100
AcDbLine
 10
38.548720472
 20
-41.363779528
 30
0.0
 11
38.076279528
 21
-41.836220472
 31
0.0
  0
LINE
  5
FE
330
1F
100
AcDbEntity
  8
SYSTEM_ANNOTATION
  6
CONTINUOUS
 62
     1
100
AcDbLine
 10
38.076279528
 20
-41.836220472
 30
0.0
 11
38.3125
 21
-41.6
 31
0.0
  0
LINE
  5
FF
330
1F
100
AcDbEntity
  8
SYSTEM_ANNOTATION
  6
CONTINUOUS
 62
     1
100
AcDbLine
 10
38.3125
 20
-41.6
 30
0.0
 11
34.3125
 21
-41.6
 31
0.0
  0
LINE
  5
100
330
1F
100
AcDbEntity
  8
SYSTEM_ANNOTATION
  6
CONTINUOUS
 62
     1
100
AcDbLine
 10
34.3125
 20
-41.6
 30
0.0
 11
34.548720472
 21
-41.363779528
 31
0.0
  0
LINE
  5
101
330
1F
100
AcDbEntity
  8
SYSTEM_ANNOTATION
  6
CONTINUOUS
 62
     1
100
AcDbLine
 10
34.548720472
 20
-41.363779528
 30
0.0
 11
34.076279528
 21
-41.836220472
 31
0.0
  0
LINE
  5
102
330
1F
100
AcDbEntity
  8
SYSTEM_ANNOTATION
  6
CONTINUOUS
 62
     1
100
AcDbLine
 10
34.076279528
 20
-41.836220472
 30
0.0
 11
34.3125
 21
-41.6
 31
0.0
  0
LINE
  5
103
330
1F
100
AcDbEntity
  8
SYSTEM_ANNOTATION
  6
CONTINUOUS
 62
     1
100
AcDbLine
 10
34.3125
 20
-35.95
 30
0.0
 11
34.3125
 21
-41.6
 31
0.0
  0
MTEXT
  5
104
330
1F
100
AcDbEntity
  8
SYSTEM_ANNOTATION
  6
CONTINUOUS
 62
     1
100
AcDbMText
 10
42.409444103
 20
-39.140529128
 30
0.0
 40
1.238613333
 41
0.0
 71
     7
 72
     1
  1
\A1;1{\H0.70x;\S1#4;}
  7
ARIAL
 11
6.123031769111886E-17
 21
1.0
 31
0.0
  0
LINE
  5
105
330
1F
100
AcDbEntity
  8
SYSTEM_ANNOTATION
  6
CONTINUOUS
 62
     1
100
AcDbLine
 10
34.5625
 20
-35.7
 30
0.0
 11
42.6
 21
-35.7
 31
0.0
  0
LINE
  5
106
330
1F
100
AcDbEntity
  8
SYSTEM_ANNOTATION
  6
CONTINUOUS
 62
     1
100
AcDbLine
 10
42.6
 20
-35.7
 30
0.0
 11
42.6
 21
-39.140529128
 31
0.0
  0
LINE
  5
107
330
1F
100
AcDbEntity
  8
SYSTEM_ANNOTATION
  6
CONTINUOUS
 62
     1
100
AcDbLine
 10
42.6
 20
-35.7
 30
0.0
 11
42.836220472
 21
-35.936220472
 31
0.0
  0
LINE
  5
108
330
1F
100
AcDbEntity
  8
SYSTEM_ANNOTATION
  6
CONTINUOUS
 62
     1
100
AcDbLine
 10
42.836220472
 20
-35.936220472
 30
0.0
 11
42.363779528
 21
-35.463779528
 31
0.0
  0
LINE
  5
109
330
1F
100
AcDbEntity
  8
SYSTEM_ANNOTATION
  6
CONTINUOUS
 62
     1
100
AcDbLine
 10
42.363779528
 20
-35.463779528
 30
0.0
 11
42.6
 21
-35.7
 31
0.0
  0
LINE
  5
10A
330
1F
100
AcDbEntity
  8
SYSTEM_ANNOTATION
  6
CONTINUOUS
 62
     1
100
AcDbLine
 10
42.6
 20
-35.7
 30
0.0
 11
42.6
 21
-34.45
 31
0.0
  0
LINE
  5
10B
330
1F
100
AcDbEntity
  8
SYSTEM_ANNOTATION
  6
CONTINUOUS
 62
     1
100
AcDbLine
 10
42.6
 20
-34.45
 30
0.0
 11
42.6
 21
-34.45
 31
0.0
  0
LINE
  5
10C
330
1F
100
AcDbEntity
  8
SYSTEM_ANNOTATION
  6
CONTINUOUS
 62
     1
100
AcDbLine
 10
42.6
 20
-34.45
 30
0.0
 11
42.836220472
 21
-34.686220472
 31
0.0
  0
LINE
  5
10D
330
1F
100
AcDbEntity
  8
SYSTEM_ANNOTATION
  6
CONTINUOUS
 62
     1
100
AcDbLine
 10
42.836220472
 20
-34.686220472
 30
0.0
 11
42.363779528
 21
-34.213779528
 31
0.0
  0
LINE
  5
10E
330
1F
100
AcDbEntity
  8
SYSTEM_ANNOTATION
  6
CONTINUOUS
 62
     1
100
AcDbLine
 10
42.363779528
 20
-34.213779528
 30
0.0
 11
42.6
 21
-34.45
 31
0.0
  0
LINE
  5
10F
330
1F
100
AcDbEntity
  8
SYSTEM_ANNOTATION
  6
CONTINUOUS
 62
     1
100
AcDbLine
 10
38.5625
 20
-34.45
 30
0.0
 11
42.6
 21
-34.45
 31
0.0
  0
MTEXT
  5
110
330
1F
100
AcDbEntity
  8
SYSTEM_ANNOTATION
  6
CONTINUOUS
 62
     1
100
AcDbMText
 10
36.156944103
 20
-13.005480227
 30
0.0
 40
1.238613333
 41
0.0
 71
     7
 72
     1
  1
\A1;31-6{\H0.70x;\S11#16;}
  7
ARIAL
 11
6.123031769111886E-17
 21
1.0
 31
0.0
  0
LINE
  5
111
330
1F
100
AcDbEntity
  8
SYSTEM_ANNOTATION
  6
CONTINUOUS
 62
     1
100
AcDbLine
 10
36.3475
 20
-30.0
 30
0.0
 11
36.3475
 21
-6.613399302
 31
0.0
  0
LINE
  5
112
330
1F
100
AcDbEntity
  8
SYSTEM_ANNOTATION
  6
CONTINUOUS
 62
     1
100
AcDbLine
 10
36.3475
 20
-6.613399302
 30
0.0
 11
36.3475
 21
-13.005480227
 31
0.0
  0
TEXT
  5
113
330
1F
100
AcDbEntity
  8
SYSTEM_ANNOTATION
  6
CONTINUOUS
 62
     1
100
AcDbText
 10
-11.188889744
 20
-28.930536068
 30
0.0
 40
1.238613333
  1
3
 50
90.0
 41
0.8
  7
ARIAL
100
AcDbText
  0
LINE
  5
114
330
1F
100
AcDbEntity
  8
SYSTEM_ANNOTATION
  6
CONTINUOUS
 62
     1
100
AcDbLine
 10
2.6525
 20
-30.0
 30
0.0
 11
-10.7125
 21
-30.0
 31
0.0
  0
LINE
  5
115
330
1F
100
AcDbEntity
  8
SYSTEM_ANNOTATION
  6
CONTINUOUS
 62
     1
100
AcDbLine
 10
-10.7125
 20
-30.0
 30
0.0
 11
-10.476279528
 21
-30.236220472
 31
0.0
  0
LINE
  5
116
330
1F
100
AcDbEntity
  8
SYSTEM_ANNOTATION
  6
CONTINUOUS
 62
     1
100
AcDbLine
 10
-10.476279528
 20
-30.236220472
 30
0.0
 11
-10.948720472
 21
-29.763779528
 31
0.0
  0
LINE
  5
117
330
1F
100
AcDbEntity
  8
SYSTEM_ANNOTATION
  6
CONTINUOUS
 62
     1
100
AcDbLine
 10
-10.948720472
 20
-29.763779528
 30
0.0
 11
-10.7125
 21
-30.0
 31
0.0
  0
LINE
  5
118
330
1F
100
AcDbEntity
  8
SYSTEM_ANNOTATION
  6
CONTINUOUS
 62
     1
100
AcDbLine
 10
-10.7125
 20
-30.0
 30
0.0
 11
-10.7125
 21
-27.0
 31
0.0
  0
LINE
  5
119
330
1F
100
AcDbEntity
  8
SYSTEM_ANNOTATION
  6
CONTINUOUS
 62
     1
100
AcDbLine
 10
-10.7125
 20
-27.0
 30
0.0
 11
-10.476279528
 21
-27.236220472
 31
0.0
  0
LINE
  5
11A
330
1F
100
AcDbEntity
  8
SYSTEM_ANNOTATION
  6
CONTINUOUS
 62
     1
100
AcDbLine
 10
-10.476279528
 20
-27.236220472
 30
0.0
 11
-10.948720472
 21
-26.763779528
 31
0.0
  0
LINE
  5
11B
330
1F
100
AcDbEntity
  8
SYSTEM_ANNOTATION
  6
CONTINUOUS
 62
     1
100
AcDbLine
 10
-10.948720472
 20
-26.763779528
 30
0.0
 11
-10.7125
 21
-27.0
 31
0.0
  0
LINE
  5
11C
330
1F
100
AcDbEntity
  8
SYSTEM_ANNOTATION
  6
CONTINUOUS
 62
     1
100
AcDbLine
 10
2.6525
 20
-27.0
 30
0.0
 11
-10.7125
 21
-27.0
 31
0.0
  0
TEXT
  5
11D
330
1F
100
AcDbEntity
  8
SYSTEM_ANNOTATION
  6
CONTINUOUS
 62
     1
100
AcDbText
 10
-11.188889744
 20
-25.930536068
 30
0.0
 40
1.238613333
  1
3
 50
90.0
 41
0.8
  7
ARIAL
100
AcDbText
  0
LINE
  5
11E
330
1F
100
AcDbEntity
  8
SYSTEM_ANNOTATION
  6
CONTINUOUS
 62
     1
100
AcDbLine
 10
2.6525
 20
-27.0
 30
0.0
 11
-10.7125
 21
-27.0
 31
0.0
  0
LINE
  5
11F
330
1F
100
AcDbEntity
  8
SYSTEM_ANNOTATION
  6
CONTINUOUS
 62
     1
100
AcDbLine
 10
-10.7125
 20
-27.0
 30
0.0
 11
-10.476279528
 21
-27.236220472
 31
0.0
  0
LINE
  5
120
330
1F
100
AcDbEntity
  8
SYSTEM_ANNOTATION
  6
CONTINUOUS
 62
     1
100
AcDbLine
 10
-10.476279528
 20
-27.236220472
 30
0.0
 11
-10.948720472
 21
-26.763779528
 31
0.0
  0
LINE
  5
121
330
1F
100
AcDbEntity
  8
SYSTEM_ANNOTATION
  6
CONTINUOUS
 62
     1
100
AcDbLine
 10
-10.948720472
 20
-26.763779528
 30
0.0
 11
-10.7125
 21
-27.0
 31
0.0
  0
LINE
  5
122
330
1F
100
AcDbEntity
  8
SYSTEM_ANNOTATION
  6
CONTINUOUS
 62
     1
100
AcDbLine
 10
-10.7125
 20
-27.0
 30
0.0
 11
-10.7125
 21
-24.0
 31
0.0
  0
LINE
  5
123
330
1F
100
AcDbEntity
  8
SYSTEM_ANNOTATION
  6
CONTINUOUS
 62
     1
100
AcDbLine
 10
-10.7125
 20
-24.0
 30
0.0
 11
-10.476279528
 21
-24.236220472
 31
0.0
  0
LINE
  5
124
330
1F
100
AcDbEntity
  8
SYSTEM_ANNOTATION
  6
CONTINUOUS
 62
     1
100
AcDbLine
 10
-10.476279528
 20
-24.236220472
 30
0.0
 11
-10.948720472
 21
-23.763779528
 31
0.0
  0
LINE
  5
125
330
1F
100
AcDbEntity
  8
SYSTEM_ANNOTATION
  6
CONTINUOUS
 62
     1
100
AcDbLine
 10
-10.948720472
 20
-23.763779528
 30
0.0
 11
-10.7125
 21
-24.0
 31
0.0
  0
LINE
  5
126
330
1F
100
AcDbEntity
  8
SYSTEM_ANNOTATION
  6
CONTINUOUS
 62
     1
100
AcDbLine
 10
2.6525
 20
-24.0
 30
0.0
 11
-10.7125
 21
-24.0
 31
0.0
  0
TEXT
  5
127
330
1F
100
AcDbEntity
  8
SYSTEM_ANNOTATION
  6
CONTINUOUS
 62
     1
100
AcDbText
 10
-11.188889744
 20
-22.930536068
 30
0.0
 40
1.238613333
  1
3
 50
90.0
 41
0.8
  7
ARIAL
100
AcDbText
  0
LINE
  5
128
330
1F
100
AcDbEntity
  8
SYSTEM_ANNOTATION
  6
CONTINUOUS
 62
     1
100
AcDbLine
 10
2.6525
 20
-24.0
 30
0.0
 11
-10.7125
 21
-24.0
 31
0.0
  0
LINE
  5
129
330
1F
100
AcDbEntity
  8
SYSTEM_ANNOTATION
  6
CONTINUOUS
 62
     1
100
AcDbLine
 10
-10.7125
 20
-24.0
 30
0.0
 11
-10.476279528
 21
-24.236220472
 31
0.0
  0
LINE
  5
12A
330
1F
100
AcDbEntity
  8
SYSTEM_ANNOTATION
  6
CONTINUOUS
 62
     1
100
AcDbLine
 10
-10.476279528
 20
-24.236220472
 30
0.0
 11
-10.948720472
 21
-23.763779528
 31
0.0
  0
LINE
  5
12B
330
1F
100
AcDbEntity
  8
SYSTEM_ANNOTATION
  6
CONTINUOUS
 62
     1
100
AcDbLine
 10
-10.948720472
 20
-23.763779528
 30
0.0
 11
-10.7125
 21
-24.0
 31
0.0
  0
LINE
  5
12C
330
1F
100
AcDbEntity
  8
SYSTEM_ANNOTATION
  6
CONTINUOUS
 62
     1
100
AcDbLine
 10
-10.7125
 20
-24.0
 30
0.0
 11
-10.7125
 21
-21.0
 31
0.0
  0
LINE
  5
12D
330
1F
100
AcDbEntity
  8
SYSTEM_ANNOTATION
  6
CONTINUOUS
 62
     1
100
AcDbLine
 10
-10.7125
 20
-21.0
 30
0.0
 11
-10.476279528
 21
-21.236220472
 31
0.0
  0
LINE
  5
12E
330
1F
100
AcDbEntity
  8
SYSTEM_ANNOTATION
  6
CONTINUOUS
 62
     1
100
AcDbLine
 10
-10.476279528
 20
-21.236220472
 30
0.0
 11
-10.948720472
 21
-20.763779528
 31
0.0
  0
LINE
  5
12F
330
1F
100
AcDbEntity
  8
SYSTEM_ANNOTATION
  6
CONTINUOUS
 62
     1
100
AcDbLine
 10
-10.948720472
 20
-20.763779528
 30
0.0
 11
-10.7125
 21
-21.0
 31
0.0
  0
LINE
  5
130
330
1F
100
AcDbEntity
  8
SYSTEM_ANNOTATION
  6
CONTINUOUS
 62
     1
100
AcDbLine
 10
2.6525
 20
-21.0
 30
0.0
 11
-10.7125
 21
-21.0
 31
0.0
  0
TEXT
  5
131
330
1F
100
AcDbEntity
  8
SYSTEM_ANNOTATION
  6
CONTINUOUS
 62
     1
100
AcDbText
 10
-11.188889744
 20
-19.930536068
 30
0.0
 40
1.238613333
  1
3
 50
90.0
 41
0.8
  7
ARIAL
100
AcDbText
  0
LINE
  5
132
330
1F
100
AcDbEntity
  8
SYSTEM_ANNOTATION
  6
CONTINUOUS
 62
     1
100
AcDbLine
 10
2.6525
 20
-21.0
 30
0.0
 11
-10.7125
 21
-21.0
 31
0.0
  0
LINE
  5
133
330
1F
100
AcDbEntity
  8
SYSTEM_ANNOTATION
  6
CONTINUOUS
 62
     1
100
AcDbLine
 10
-10.7125
 20
-21.0
 30
0.0
 11
-10.476279528
 21
-21.236220472
 31
0.0
  0
LINE
  5
134
330
1F
100
AcDbEntity
  8
SYSTEM_ANNOTATION
  6
CONTINUOUS
 62
     1
100
AcDbLine
 10
-10.476279528
 20
-21.236220472
 30
0.0
 11
-10.948720472
 21
-20.763779528
 31
0.0
  0
LINE
  5
135
330
1F
100
AcDbEntity
  8
SYSTEM_ANNOTATION
  6
CONTINUOUS
 62
     1
100
AcDbLine
 10
-10.948720472
 20
-20.763779528
 30
0.0
 11
-10.7125
 21
-21.0
 31
0.0
  0
LINE
  5
136
330
1F
100
AcDbEntity
  8
SYSTEM_ANNOTATION
  6
CONTINUOUS
 62
     1
100
AcDbLine
 10
-10.7125
 20
-21.0
 30
0.0
 11
-10.7125
 21
-18.0
 31
0.0
  0
LINE
  5
137
330
1F
100
AcDbEntity
  8
SYSTEM_ANNOTATION
  6
CONTINUOUS
 62
     1
100
AcDbLine
 10
-10.7125
 20
-18.0
 30
0.0
 11
-10.476279528
 21
-18.236220472
 31
0.0
  0
LINE
  5
138
330
1F
100
AcDbEntity
  8
SYSTEM_ANNOTATION
  6
CONTINUOUS
 62
     1
100
AcDbLine
 10
-10.476279528
 20
-18.236220472
 30
0.0
 11
-10.948720472
 21
-17.763779528
 31
0.0
  0
LINE
  5
139
330
1F
100
AcDbEntity
  8
SYSTEM_ANNOTATION
  6
CONTINUOUS
 62
     1
100
AcDbLine
 10
-10.948720472
 20
-17.763779528
 30
0.0
 11
-10.7125
 21
-18.0
 31
0.0
  0
LINE
  5
13A
330
1F
100
AcDbEntity
  8
SYSTEM_ANNOTATION
  6
CONTINUOUS
 62
     1
100
AcDbLine
 10
2.6525
 20
-18.0
 30
0.0
 11
-10.7125
 21
-18.0
 31
0.0
  0
TEXT
  5
13B
330
1F
100
AcDbEntity
  8
SYSTEM_ANNOTATION
  6
CONTINUOUS
 62
     1
100
AcDbText
 10
-11.188889744
 20
-16.930536068
 30
0.0
 40
1.238613333
  1
3
 50
90.0
 41
0.8
  7
ARIAL
100
AcDbText
  0
LINE
  5
13C
330
1F
100
AcDbEntity
  8
SYSTEM_ANNOTATION
  6
CONTINUOUS
 62
     1
100
AcDbLine
 10
2.6525
 20
-18.0
 30
0.0
 11
-10.7125
 21
-18.0
 31
0.0
  0
LINE
  5
13D
330
1F
100
AcDbEntity
  8
SYSTEM_ANNOTATION
  6
CONTINUOUS
 62
     1
100
AcDbLine
 10
-10.7125
 20
-18.0
 30
0.0
 11
-10.476279528
 21
-18.236220472
 31
0.0
  0
LINE
  5
13E
330
1F
100
AcDbEntity
  8
SYSTEM_ANNOTATION
  6
CONTINUOUS
 62
     1
100
AcDbLine
 10
-10.476279528
 20
-18.236220472
 30
0.0
 11
-10.948720472
 21
-17.763779528
 31
0.0
  0
LINE
  5
13F
330
1F
100
AcDbEntity
  8
SYSTEM_ANNOTATION
  6
CONTINUOUS
 62
     1
100
AcDbLine
 10
-10.948720472
 20
-17.763779528
 30
0.0
 11
-10.7125
 21
-18.0
 31
0.0
  0
LINE
  5
140
330
1F
100
AcDbEntity
  8
SYSTEM_ANNOTATION
  6
CONTINUOUS
 62
     1
100
AcDbLine
 10
-10.7125
 20
-18.0
 30
0.0
 11
-10.7125
 21
-15.0
 31
0.0
  0
LINE
  5
141
330
1F
100
AcDbEntity
  8
SYSTEM_ANNOTATION
  6
CONTINUOUS
 62
     1
100
AcDbLine
 10
-10.7125
 20
-15.0
 30
0.0
 11
-10.476279528
 21
-15.236220472
 31
0.0
  0
LINE
  5
142
330
1F
100
AcDbEntity
  8
SYSTEM_ANNOTATION
  6
CONTINUOUS
 62
     1
100
AcDbLine
 10
-10.476279528
 20
-15.236220472
 30
0.0
 11
-10.948720472
 21
-14.763779528
 31
0.0
  0
LINE
  5
143
330
1F
100
AcDbEntity
  8
SYSTEM_ANNOTATION
  6
CONTINUOUS
 62
     1
100
AcDbLine
 10
-10.948720472
 20
-14.763779528
 30
0.0
 11
-10.7125
 21
-15.0
 31
0.0
  0
LINE
  5
144
330
1F
100
AcDbEntity
  8
SYSTEM_ANNOTATION
  6
CONTINUOUS
 62
     1
100
AcDbLine
 10
0.6875
 20
-15.0
 30
0.0
 11
-10.7125
 21
-15.0
 31
0.0
  0
TEXT
  5
145
330
1F
100
AcDbEntity
  8
SYSTEM_ANNOTATION
  6
CONTINUOUS
 62
     1
100
AcDbText
 10
47.236110256
 20
-16.930536068
 30
0.0
 40
1.238613333
  1
3
 50
90.0
 41
0.8
  7
ARIAL
100
AcDbText
  0
LINE
  5
146
330
1F
100
AcDbEntity
  8
SYSTEM_ANNOTATION
  6
CONTINUOUS
 62
     1
100
AcDbLine
 10
38.3125
 20
-15.0
 30
0.0
 11
47.7125
 21
-15.0
 31
0.0
  0
LINE
  5
147
330
1F
100
AcDbEntity
  8
SYSTEM_ANNOTATION
  6
CONTINUOUS
 62
     1
100
AcDbLine
 10
47.7125
 20
-15.0
 30
0.0
 11
47.476279528
 21
-14.763779528
 31
0.0
  0
LINE
  5
148
330
1F
100
AcDbEntity
  8
SYSTEM_ANNOTATION
  6
CONTINUOUS
 62
     1
100
AcDbLine
 10
47.476279528
 20
-14.763779528
 30
0.0
 11
47.948720472
 21
-15.236220472
 31
0.0
  0
LINE
  5
149
330
1F
100
AcDbEntity
  8
SYSTEM_ANNOTATION
  6
CONTINUOUS
 62
     1
100
AcDbLine
 10
47.948720472
 20
-15.236220472
 30
0.0
 11
47.7125
 21
-15.0
 31
0.0
  0
LINE
  5
14A
330
1F
100
AcDbEntity
  8
SYSTEM_ANNOTATION
  6
CONTINUOUS
 62
     1
100
AcDbLine
 10
47.7125
 20
-15.0
 30
0.0
 11
47.7125
 21
-18.0
 31
0.0
  0
LINE
  5
14B
330
1F
100
AcDbEntity
  8
SYSTEM_ANNOTATION
  6
CONTINUOUS
 62
     1
100
AcDbLine
 10
47.7125
 20
-18.0
 30
0.0
 11
47.476279528
 21
-17.763779528
 31
0.0
  0
LINE
  5
14C
330
1F
100
AcDbEntity
  8
SYSTEM_ANNOTATION
  6
CONTINUOUS
 62
     1
100
AcDbLine
 10
47.476279528
 20
-17.763779528
 30
0.0
 11
47.948720472
 21
-18.236220472
 31
0.0
  0
LINE
  5
14D
330
1F
100
AcDbEntity
  8
SYSTEM_ANNOTATION
  6
CONTINUOUS
 62
     1
100
AcDbLine
 10
47.948720472
 20
-18.236220472
 30
0.0
 11
47.7125
 21
-18.0
 31
0.0
  0
LINE
  5
14E
330
1F
100
AcDbEntity
  8
SYSTEM_ANNOTATION
  6
CONTINUOUS
 62
     1
100
AcDbLine
 10
36.3475
 20
-18.0
 30
0.0
 11
47.7125
 21
-18.0
 31
0.0
  0
TEXT
  5
14F
330
1F
100
AcDbEntity
  8
SYSTEM_ANNOTATION
  6
CONTINUOUS
 62
     1
100
AcDbText
 10
47.236110256
 20
-19.930536068
 30
0.0
 40
1.238613333
  1
3
 50
90.0
 41
0.8
  7
ARIAL
100
AcDbText
  0
LINE
  5
150
330
1F
100
AcDbEntity
  8
SYSTEM_ANNOTATION
  6
CONTINUOUS
 62
     1
100
AcDbLine
 10
36.3475
 20
-18.0
 30
0.0
 11
47.7125
 21
-18.0
 31
0.0
  0
LINE
  5
151
330
1F
100
AcDbEntity
  8
SYSTEM_ANNOTATION
  6
CONTINUOUS
 62
     1
100
AcDbLine
 10
47.7125
 20
-18.0
 30
0.0
 11
47.476279528
 21
-17.763779528
 31
0.0
  0
LINE
  5
152
330
1F
100
AcDbEntity
  8
SYSTEM_ANNOTATION
  6
CONTINUOUS
 62
     1
100
AcDbLine
 10
47.476279528
 20
-17.763779528
 30
0.0
 11
47.948720472
 21
-18.236220472
 31
0.0
  0
LINE
  5
153
330
1F
100
AcDbEntity
  8
SYSTEM_ANNOTATION
  6
CONTINUOUS
 62
     1
100
AcDbLine
 10
47.948720472
 20
-18.236220472
 30
0.0
 11
47.7125
 21
-18.0
 31
0.0
  0
LINE
  5
154
330
1F
100
AcDbEntity
  8
SYSTEM_ANNOTATION
  6
CONTINUOUS
 62
     1
100
AcDbLine
 10
47.7125
 20
-18.0
 30
0.0
 11
47.7125
 21
-21.0
 31
0.0
  0
LINE
  5
155
330
1F
100
AcDbEntity
  8
SYSTEM_ANNOTATION
  6
CONTINUOUS
 62
     1
100
AcDbLine
 10
47.7125
 20
-21.0
 30
0.0
 11
47.476279528
 21
-20.763779528
 31
0.0
  0
LINE
  5
156
330
1F
100
AcDbEntity
  8
SYSTEM_ANNOTATION
  6
CONTINUOUS
 62
     1
100
AcDbLine
 10
47.476279528
 20
-20.763779528
 30
0.0
 11
47.948720472
 21
-21.236220472
 31
0.0
  0
LINE
  5
157
330
1F
100
AcDbEntity
  8
SYSTEM_ANNOTATION
  6
CONTINUOUS
 62
     1
100
AcDbLine
 10
47.948720472
 20
-21.236220472
 30
0.0
 11
47.7125
 21
-21.0
 31
0.0
  0
LINE
  5
158
330
1F
100
AcDbEntity
  8
SYSTEM_ANNOTATION
  6
CONTINUOUS
 62
     1
100
AcDbLine
 10
36.3475
 20
-21.0
 30
0.0
 11
47.7125
 21
-21.0
 31
0.0
  0
TEXT
  5
159
330
1F
100
AcDbEntity
  8
SYSTEM_ANNOTATION
  6
CONTINUOUS
 62
     1
100
AcDbText
 10
47.236110256
 20
-22.930536068
 30
0.0
 40
1.238613333
  1
3
 50
90.0
 41
0.8
  7
ARIAL
100
AcDbText
  0
LINE
  5
15A
330
1F
100
AcDbEntity
  8
SYSTEM_ANNOTATION
  6
CONTINUOUS
 62
     1
100
AcDbLine
 10
36.3475
 20
-21.0
 30
0.0
 11
47.7125
 21
-21.0
 31
0.0
  0
LINE
  5
15B
330
1F
100
AcDbEntity
  8
SYSTEM_ANNOTATION
  6
CONTINUOUS
 62
     1
100
AcDbLine
 10
47.7125
 20
-21.0
 30
0.0
 11
47.476279528
 21
-20.763779528
 31
0.0
  0
LINE
  5
15C
330
1F
100
AcDbEntity
  8
SYSTEM_ANNOTATION
  6
CONTINUOUS
 62
     1
100
AcDbLine
 10
47.476279528
 20
-20.763779528
 30
0.0
 11
47.948720472
 21
-21.236220472
 31
0.0
  0
LINE
  5
15D
330
1F
100
AcDbEntity
  8
SYSTEM_ANNOTATION
  6
CONTINUOUS
 62
     1
100
AcDbLine
 10
47.948720472
 20
-21.236220472
 30
0.0
 11
47.7125
 21
-21.0
 31
0.0
  0
LINE
  5
15E
330
1F
100
AcDbEntity
  8
SYSTEM_ANNOTATION
  6
CONTINUOUS
 62
     1
100
AcDbLine
 10
47.7125
 20
-21.0
 30
0.0
 11
47.7125
 21
-24.0
 31
0.0
  0
LINE
  5
15F
330
1F
100
AcDbEntity
  8
SYSTEM_ANNOTATION
  6
CONTINUOUS
 62
     1
100
AcDbLine
 10
47.7125
 20
-24.0
 30
0.0
 11
47.476279528
 21
-23.763779528
 31
0.0
  0
LINE
  5
160
330
1F
100
AcDbEntity
  8
SYSTEM_ANNOTATION
  6
CONTINUOUS
 62
     1
100
AcDbLine
 10
47.476279528
 20
-23.763779528
 30
0.0
 11
47.948720472
 21
-24.236220472
 31
0.0
  0
LINE
  5
161
330
1F
100
AcDbEntity
  8
SYSTEM_ANNOTATION
  6
CONTINUOUS
 62
     1
100
AcDbLine
 10
47.948720472
 20
-24.236220472
 30
0.0
 11
47.7125
 21
-24.0
 31
0.0
  0
LINE
  5
162
330
1F
100
AcDbEntity
  8
SYSTEM_ANNOTATION
  6
CONTINUOUS
 62
     1
100
AcDbLine
 10
36.3475
 20
-24.0
 30
0.0
 11
47.7125
 21
-24.0
 31
0.0
  0
TEXT
  5
163
330
1F
100
AcDbEntity
  8
SYSTEM_ANNOTATION
  6
CONTINUOUS
 62
     1
100
AcDbText
 10
47.236110256
 20
-25.930536068
 30
0.0
 40
1.238613333
  1
3
 50
90.0
 41
0.8
  7
ARIAL
100
AcDbText
  0
LINE
  5
164
330
1F
100
AcDbEntity
  8
SYSTEM_ANNOTATION
  6
CONTINUOUS
 62
     1
100
AcDbLine
 10
36.3475
 20
-24.0
 30
0.0
 11
47.7125
 21
-24.0
 31
0.0
  0
LINE
  5
165
330
1F
100
AcDbEntity
  8
SYSTEM_ANNOTATION
  6
CONTINUOUS
 62
     1
100
AcDbLine
 10
47.7125
 20
-24.0
 30
0.0
 11
47.476279528
 21
-23.763779528
 31
0.0
  0
LINE
  5
166
330
1F
100
AcDbEntity
  8
SYSTEM_ANNOTATION
  6
CONTINUOUS
 62
     1
100
AcDbLine
 10
47.476279528
 20
-23.763779528
 30
0.0
 11
47.948720472
 21
-24.236220472
 31
0.0
  0
LINE
  5
167
330
1F
100
AcDbEntity
  8
SYSTEM_ANNOTATION
  6
CONTINUOUS
 62
     1
100
AcDbLine
 10
47.948720472
 20
-24.236220472
 30
0.0
 11
47.7125
 21
-24.0
 31
0.0
  0
LINE
  5
168
330
1F
100
AcDbEntity
  8
SYSTEM_ANNOTATION
  6
CONTINUOUS
 62
     1
100
AcDbLine
 10
47.7125
 20
-24.0
 30
0.0
 11
47.7125
 21
-27.0
 31
0.0
  0
LINE
  5
169
330
1F
100
AcDbEntity
  8
SYSTEM_ANNOTATION
  6
CONTINUOUS
 62
     1
100
AcDbLine
 10
47.7125
 20
-27.0
 30
0.0
 11
47.476279528
 21
-26.763779528
 31
0.0
  0
LINE
  5
16A
330
1F
100
AcDbEntity
  8
SYSTEM_ANNOTATION
  6
CONTINUOUS
 62
     1
100
AcDbLine
 10
47.476279528
 20
-26.763779528
 30
0.0
 11
47.948720472
 21
-27.236220472
 31
0.0
  0
LINE
  5
16B
330
1F
100
AcDbEntity
  8
SYSTEM_ANNOTATION
  6
CONTINUOUS
 62
     1
100
AcDbLine
 10
47.948720472
 20
-27.236220472
 30
0.0
 11
47.7125
 21
-27.0
 31
0.0
  0
LINE
  5
16C
330
1F
100
AcDbEntity
  8
SYSTEM_ANNOTATION
  6
CONTINUOUS
 62
     1
100
AcDbLine
 10
36.3475
 20
-27.0
 30
0.0
 11
47.7125
 21
-27.0
 31
0.0
  0
TEXT
  5
16D
330
1F
100
AcDbEntity
  8
SYSTEM_ANNOTATION
  6
CONTINUOUS
 62
     1
100
AcDbText
 10
47.236110256
 20
-28.930536068
 30
0.0
 40
1.238613333
  1
3
 50
90.0
 41
0.8
  7
ARIAL
100
AcDbText
  0
LINE
  5
16E
330
1F
100
AcDbEntity
  8
SYSTEM_ANNOTATION
  6
CONTINUOUS
 62
     1
100
AcDbLine
 10
36.3475
 20
-27.0
 30
0.0
 11
47.7125
 21
-27.0
 31
0.0
  0
LINE
  5
16F
330
1F
100
AcDbEntity
  8
SYSTEM_ANNOTATION
  6
CONTINUOUS
 62
     1
100
AcDbLine
 10
47.7125
 20
-27.0
 30
0.0
 11
47.476279528
 21
-26.763779528
 31
0.0
  0
LINE
  5
170
330
1F
100
AcDbEntity
  8
SYSTEM_ANNOTATION
  6
CONTINUOUS
 62
     1
100
AcDbLine
 10
47.476279528
 20
-26.763779528
 30
0.0
 11
47.948720472
 21
-27.236220472
 31
0.0
  0
LINE
  5
171
330
1F
100
AcDbEntity
  8
SYSTEM_ANNOTATION
  6
CONTINUOUS
 62
     1
100
AcDbLine
 10
47.948720472
 20
-27.236220472
 30
0.0
 11
47.7125
 21
-27.0
 31
0.0
  0
LINE
  5
172
330
1F
100
AcDbEntity
  8
SYSTEM_ANNOTATION
  6
CONTINUOUS
 62
     1
100
AcDbLine
 10
47.7125
 20
-27.0
 30
0.0
 11
47.7125
 21
-30.0
 31
0.0
  0
LINE
  5
173
330
1F
100
AcDbEntity
  8
SYSTEM_ANNOTATION
  6
CONTINUOUS
 62
     1
100
AcDbLine
 10
47.7125
 20
-30.0
 30
0.0
 11
47.476279528
 21
-29.763779528
 31
0.0
  0
LINE
  5
174
330
1F
100
AcDbEntity
  8
SYSTEM_ANNOTATION
  6
CONTINUOUS
 62
     1
100
AcDbLine
 10
47.476279528
 20
-29.763779528
 30
0.0
 11
47.948720472
 21
-30.236220472
 31
0.0
  0
LINE
  5
175
330
1F
100
AcDbEntity
  8
SYSTEM_ANNOTATION
  6
CONTINUOUS
 62
     1
100
AcDbLine
 10
47.948720472
 20
-30.236220472
 30
0.0
 11
47.7125
 21
-30.0
 31
0.0
  0
LINE
  5
176
330
1F
100
AcDbEntity
  8
SYSTEM_ANNOTATION
  6
CONTINUOUS
 62
     1
100
AcDbLine
 10
36.3475
 20
-30.0
 30
0.0
 11
47.7125
 21
-30.0
 31
0.0
  0
MTEXT
  5
177
330
1F
100
AcDbEntity
  8
SYSTEM_ANNOTATION
  6
CONTINUOUS
 62
     1
100
AcDbMText
 10
3.084101992
 20
3.190555897
 30
0.0
 40
1.238613333
 41
0.0
 71
     7
 72
     1
  1
\A1;(1-W21x44x31-8{\H0.70x;\S5#8;})  A992  31-8{\H0.70x;\S5#8;}  (P/P 31-10)
  7
ARIAL
  0
LINE
  5
178
330
1F
100
AcDbEntity
  8
SYSTEM_ANNOTATION
  6
CONTINUOUS
 62
     1
100
AcDbLine
 10
0.6875
 20
-15.0
 30
0.0
 11
0.6875
 21
3.0
 31
0.0
  0
LINE
  5
179
330
1F
100
AcDbEntity
  8
SYSTEM_ANNOTATION
  6
CONTINUOUS
 62
     1
100
AcDbLine
 10
0.6875
 20
3.0
 30
0.0
 11
0.451279528
 21
2.763779528
 31
0.0
  0
LINE
  5
17A
330
1F
100
AcDbEntity
  8
SYSTEM_ANNOTATION
  6
CONTINUOUS
 62
     1
100
AcDbLine
 10
0.451279528
 20
2.763779528
 30
0.0
 11
0.923720472
 21
3.236220472
 31
0.0
  0
LINE
  5
17B
330
1F
100
AcDbEntity
  8
SYSTEM_ANNOTATION
  6
CONTINUOUS
 62
     1
100
AcDbLine
 10
0.923720472
 20
3.236220472
 30
0.0
 11
0.6875
 21
3.0
 31
0.0
  0
LINE
  5
17C
330
1F
100
AcDbEntity
  8
SYSTEM_ANNOTATION
  6
CONTINUOUS
 62
     1
100
AcDbLine
 10
0.6875
 20
3.0
 30
0.0
 11
38.3125
 21
3.0
 31
0.0
  0
LINE
  5
17D
330
1F
100
AcDbEntity
  8
SYSTEM_ANNOTATION
  6
CONTINUOUS
 62
     1
100
AcDbLine
 10
38.3125
 20
3.0
 30
0.0
 11
38.076279528
 21
2.763779528
 31
0.0
  0
LINE
  5
17E
330
1F
100
AcDbEntity
  8
SYSTEM_ANNOTATION
  6
CONTINUOUS
 62
     1
100
AcDbLine
 10
38.076279528
 20
2.763779528
 30
0.0
 11
38.548720472
 21
3.236220472
 31
0.0
  0
LINE
  5
17F
330
1F
100
AcDbEntity
  8
SYSTEM_ANNOTATION
  6
CONTINUOUS
 62
     1
100
AcDbLine
 10
38.548720472
 20
3.236220472
 30
0.0
 11
38.3125
 21
3.0
 31
0.0
  0
LINE
  5
180
330
1F
100
AcDbEntity
  8
SYSTEM_ANNOTATION
  6
CONTINUOUS
 62
     1
100
AcDbLine
 10
38.3125
 20
-15.0
 30
0.0
 11
38.3125
 21
3.0
 31
0.0
  0
MTEXT
  5
181
330
1F
100
AcDbEntity
  8
SYSTEM_ANNOTATION
  6
CONTINUOUS
 62
     1
100
AcDbMText
 10
-13.190555897
 20
-14.5
 30
0.0
 40
1.238613333
 41
0.0
 71
     7
 72
     1
  1
\A1;Wp EL 116-5{\H0.70x;\S3#4;}
  7
ARIAL
 11
6.123031769111886E-17
 21
1.0
 31
0.0
  0
MTEXT
  5
182
330
1F
100
AcDbEntity
  8
SYSTEM_ANNOTATION
  6
CONTINUOUS
 62
     1
100
AcDbMText
 10
-4.426529163
 20
3.161972513
 30
0.0
 40
1.052821333
 41
0.0
 71
     7
 72
     1
  1
\A1;(-{\H0.70x;\S11#16;})
  7
ARIAL
  0
MTEXT
  5
183
330
1F
100
AcDbEntity
  8
SYSTEM_ANNOTATION
  6
CONTINUOUS
 62
     1
100
AcDbMText
 10
39.3125
 20
3.161972513
 30
0.0
 40
1.052821333
 41
0.0
 71
     7
 72
     1
  1
\A1;(-{\H0.70x;\S11#16;})
  7
ARIAL
  0
TEXT
  5
184
330
1F
100
AcDbEntity
  8
SYSTEM_ANNOTATION
  6
CONTINUOUS
 62
     3
100
AcDbText
 10
10.410386205
 20
-44.795039886
 30
0.0
 40
2.167573333
  1
2 BEAMS 720B2
 41
0.8
  7
ARIAL
 72
     1
 11
19.5
 21
-44.795039886
 31
0.0
100
AcDbText
  0
TEXT
  5
185
330
1F
100
AcDbEntity
  8
SYSTEM_ANNOTATION
  6
CONTINUOUS
 62
     1
100
AcDbText
 10
13.284411471
 20
-49.052332194
 30
0.0
 40
1.238613333
  1
W
 41
0.8
  7
ARIAL
100
AcDbText
  0
TEXT
  5
186
330
1F
100
AcDbEntity
  8
SYSTEM_ANNOTATION
  6
CONTINUOUS
 62
     1
100
AcDbText
 10
13.799996367
 20
-52.252332194
 30
0.0
 40
1.238613333
  1
F
 41
0.8
  7
ARIAL
100
AcDbText
  0
TEXT
  5
187
330
1F
100
AcDbEntity
  8
SYSTEM_ANNOTATION
  6
CONTINUOUS
 62
     1
100
AcDbText
 10
13.713057565
 20
-55.452332194
 30
0.0
 40
1.238613333
  1
K
 41
0.8
  7
ARIAL
100
AcDbText
  0
MTEXT
  5
188
330
1F
100
AcDbEntity
  8
SYSTEM_ANNOTATION
  6
CONTINUOUS
 62
     1
100
AcDbMText
 10
15.745739336
 20
-49.33816604
 30
0.0
 40
1.238613333
 41
0.0
 71
     7
 72
     1
  1
\A1;20{\H0.70x;\S11#16;}x{\H0.70x;\S3#8;}
  7
ARIAL
  0
MTEXT
  5
189
330
1F
100
AcDbEntity
  8
SYSTEM_ANNOTATION
  6
CONTINUOUS
 62
     1
100
AcDbMText
 10
15.745739336
 20
-52.53816604
 30
0.0
 40
1.238613333
 41
0.0
 71
     7
 72
     1
  1
\A1;6{\H0.70x;\S1#2;}x{\H0.70x;\S7#16;}
  7
ARIAL
  0
MTEXT
  5
18A
330
1F
100
AcDbEntity
  8
SYSTEM_ANNOTATION
  6
CONTINUOUS
 62
     1
100
AcDbMText
 10
15.745739336
 20
-55.73816604
 30
0.0
 40
1.238613333
 41
0.0
 71
     7
 72
     1
  1
\A1;1{\H0.70x;\S1#8;}x{\H0.70x;\S7#8;}
  7
ARIAL
  0
LINE
  5
18B
330
1F
100
AcDbEntity
  8
SYSTEM_ANNOTATION
  6
CONTINUOUS
 62
     1
100
AcDbLine
 10
0.6875
 20
-15.0
 30
0.0
 11
0.0
 21
-15.0
 31
0.0
  0
LINE
  5
18C
330
1F
100
AcDbEntity
  8
SYSTEM_ANNOTATION
  6
CONTINUOUS
 62
     1
100
AcDbLine
 10
0.0
 20
-15.0
 30
0.0
 11
-14.0
 21
-15.0
 31
0.0
  0
LINE
  5
18D
330
1F
100
AcDbEntity
  8
SYSTEM_ANNOTATION
  6
CONTINUOUS
 62
     3
100
AcDbLine
 10
3.333546582
 20
-45.828721937
 30
0.0
 11
35.666453418
 21
-45.828721937
 31
0.0
  0
LINE
  5
18E
330
1F
100
AcDbEntity
  8
SYSTEM_ANNOTATION
  6
CONTINUOUS
 62
     3
100
AcDbLine
 10
3.333546582
 20
-46.328721937
 30
0.0
 11
35.666453418
 21
-46.328721937
 31
0.0
  0
LINE
  5
18F
330
1F
100
AcDbEntity
  8
SYSTEM_ANNOTATION
  6
CONTINUOUS
 62
     1
100
AcDbLine
 10
13.055075404
 20
-49.928721937
 30
0.0
 11
24.483596732
 21
-49.928721937
 31
0.0
  0
LINE
  5
190
330
1F
100
AcDbEntity
  8
SYSTEM_ANNOTATION
  6
CONTINUOUS
 62
     1
100
AcDbLine
 10
13.055075404
 20
-53.128721937
 30
0.0
 11
24.483596732
 21
-53.128721937
 31
0.0
  0
LINE
  5
191
330
1F
100
AcDbEntity
  8
SYSTEM_ANNOTATION
  6
CONTINUOUS
 62
     1
100
AcDbLine
 10
15.245739336
 20
-47.128721937
 30
0.0
 11
15.245739336
 21
-55.928721937
 31
0.0
  0
LINE
  5
192
330
1F
100
AcDbEntity
  8
SYSTEM_ANNOTATION
  6
CONTINUOUS
 62
     1
100
AcDbLine
 10
-13.0
 20
-4.134199518
 30
0.0
 11
-13.0
 21
-15.0
 31
0.0
  0
LINE
  5
193
330
1F
100
AcDbEntity
  8
SYSTEM_ANNOTATION
  6
CONTINUOUS
 62
     1
100
AcDbLine
 10
-13.0
 20
-15.0
 30
0.0
 11
-13.0
 21
-15.0
 31
0.0
  0
LINE
  5
194
330
1F
100
AcDbEntity
  8
SYSTEM_ANNOTATION
  6
CONTINUOUS
 62
     1
100
AcDbLine
 10
-13.0
 20
-15.0
 30
0.0
 11
-13.177165354
 21
-14.173228346
 31
0.0
  0
LINE
  5
195
330
1F
100
AcDbEntity
  8
SYSTEM_ANNOTATION
  6
CONTINUOUS
 62
     1
100
AcDbLine
 10
-13.177165354
 20
-14.173228346
 30
0.0
 11
-12.822834646
 21
-14.173228346
 31
0.0
  0
LINE
  5
196
330
1F
100
AcDbEntity
  8
SYSTEM_ANNOTATION
  6
CONTINUOUS
 62
     1
100
AcDbLine
 10
-12.822834646
 20
-14.173228346
 30
0.0
 11
-13.0
 21
-15.0
 31
0.0
  0
LINE
  5
197
330
1F
100
AcDbEntity
  8
SYSTEM_ANNOTATION
  6
CONTINUOUS
 62
     1
100
AcDbLine
 10
0.6875
 20
-12.16
 30
0.0
 11
0.6875
 21
-10.84
 31
0.0
  0
LINE
  5
198
330
1F
100
AcDbEntity
  8
SYSTEM_ANNOTATION
  6
CONTINUOUS
 62
     1
100
AcDbLine
 10
1.3475
 20
-11.5
 30
0.0
 11
0.0275
 21
-11.5
 31
0.0
  0
CIRCLE
  5
199
330
1F
100
AcDbEntity
  8
SYSTEM_ANNOTATION
  6
CONTINUOUS
 62
     1
100
AcDbCircle
 10
0.6875
 20
-11.5
 30
0.0
 40
0.55
  0
LINE
  5
19A
330
1F
100
AcDbEntity
  8
SYSTEM_ANNOTATION
  6
CONTINUOUS
 62
     3
100
AcDbLine
 10
0.5875
 20
-11.5
 30
0.0
 11
0.5875
 21
-10.959167309
 31
0.0
  0
LINE
  5
19B
330
1F
100
AcDbEntity
  8
SYSTEM_ANNOTATION
  6
CONTINUOUS
 62
     3
100
AcDbLine
 10
0.7875
 20
-11.5
 30
0.0
 11
0.7875
 21
-12.040832691
 31
0.0
  0
LINE
  5
19C
330
1F
100
AcDbEntity
  8
SYSTEM_ANNOTATION
  6
CONTINUOUS
 62
     3
100
AcDbLine
 10
0.4875
 20
-11.5
 30
0.0
 11
0.4875
 21
-10.987652462
 31
0.0
  0
LINE
  5
19D
330
1F
100
AcDbEntity
  8
SYSTEM_ANNOTATION
  6
CONTINUOUS
 62
     3
100
AcDbLine
 10
0.8875
 20
-11.5
 30
0.0
 11
0.8875
 21
-12.012347538
 31
0.0
  0
LINE
  5
19E
330
1F
100
AcDbEntity
  8
SYSTEM_ANNOTATION
  6
CONTINUOUS
 62
     3
100
AcDbLine
 10
0.3875
 20
-11.5
 30
0.0
 11
0.3875
 21
-11.039022777
 31
0.0
  0
LINE
  5
19F
330
1F
100
AcDbEntity
  8
SYSTEM_ANNOTATION
  6
CONTINUOUS
 62
     3
100
AcDbLine
 10
0.9875
 20
-11.5
 30
0.0
 11
0.9875
 21
-11.960977223
 31
0.0
  0
LINE
  5
1A0
330
1F
100
AcDbEntity
  8
SYSTEM_ANNOTATION
  6
CONTINUOUS
 62
     3
100
AcDbLine
 10
0.2875
 20
-11.5
 30
0.0
 11
0.2875
 21
-11.122508278
 31
0.0
  0
LINE
  5
1A1
330
1F
100
AcDbEntity
  8
SYSTEM_ANNOTATION
  6
CONTINUOUS
 62
     3
100
AcDbLine
 10
1.0875
 20
-11.5
 30
0.0
 11
1.0875
 21
-11.877491722
 31
0.0
  0
LINE
  5
1A2
330
1F
100
AcDbEntity
  8
SYSTEM_ANNOTATION
  6
CONTINUOUS
 62
     3
100
AcDbLine
 10
0.1875
 20
-11.5
 30
0.0
 11
0.1875
 21
-11.270871215
 31
0.0
  0
LINE
  5
1A3
330
1F
100
AcDbEntity
  8
SYSTEM_ANNOTATION
  6
CONTINUOUS
 62
     3
100
AcDbLine
 10
1.1875
 20
-11.5
 30
0.0
 11
1.1875
 21
-11.729128785
 31
0.0
  0
LINE
  5
1A4
330
1F
100
AcDbEntity
  8
SYSTEM_ANNOTATION
  6
CONTINUOUS
 62
     1
100
AcDbLine
 10
0.6875
 20
-14.75
 30
0.0
 11
0.6875
 21
-11.5
 31
0.0
  0
TEXT
  5
1A5
330
1F
100
AcDbEntity
  8
USER_ANNOTATION
  6
CONTINUOUS
 62
     1
100
AcDbText
 10
9.184593608
 20
-10.261776965
 30
0.0
 40
1.238613333
  1
NO PAINT ON TOP FLANGE
 41
0.8
  7
ARIAL
100
AcDbText
  0
LINE
  5
1A6
330
1F
100
AcDbEntity
  8
USER_ANNOTATION
  6
CONTINUOUS
 62
     1
100
AcDbLine
 10
9.184593608
 20
-7.999594443
 30
0.0
 11
9.184593608
 21
-10.738166708
 31
0.0
  0
LINE
  5
1A7
330
1F
100
AcDbEntity
  8
USER_ANNOTATION
  6
CONTINUOUS
 62
     1
100
AcDbLine
 10
9.184593608
 20
-10.738166708
 30
0.0
 11
29.486693868
 21
-10.738166708
 31
0.0
  0
LINE
  5
1A8
330
1F
100
AcDbEntity
  8
USER_ANNOTATION
  6
CONTINUOUS
 62
     1
100
AcDbLine
 10
29.486693868
 20
-10.738166708
 30
0.0
 11
29.486693868
 21
-7.999594443
 31
0.0
  0
LINE
  5
1A9
330
1F
100
AcDbEntity
  8
USER_ANNOTATION
  6
CONTINUOUS
 62
     1
100
AcDbLine
 10
29.486693868
 20
-7.999594443
 30
0.0
 11
9.184593608
 21
-7.999594443
 31
0.0
  0
LINE
  5
1AA
330
1F
100
AcDbEntity
  8
USER_ANNOTATION
  6
CONTINUOUS
 62
     1
100
AcDbLine
 10
18.221087441
 20
-10.712421897
 30
0.0
 11
18.221087441
 21
-15.0
 31
0.0
  0
LINE
  5
1AB
330
1F
100
AcDbEntity
  8
USER_ANNOTATION
  6
CONTINUOUS
 62
     1
100
AcDbLine
 10
18.221087441
 20
-15.0
 30
0.0
 11
18.221087441
 21
-15.0
 31
0.0
  0
LINE
  5
1AC
330
1F
100
AcDbEntity
  8
USER_ANNOTATION
  6
CONTINUOUS
 62
     1
100
AcDbLine
 10
18.221087441
 20
-15.0
 30
0.0
 11
18.043922087
 21
-14.173228346
 31
0.0
  0
LINE
  5
1AD
330
1F
100
AcDbEntity
  8
USER_ANNOTATION
  6
CONTINUOUS
 62
     1
100
AcDbLine
 10
18.043922087
 20
-14.173228346
 30
0.0
 11
18.398252796
 21
-14.173228346
 31
0.0
  0
LINE
  5
1AE
330
1F
100
AcDbEntity
  8
USER_ANNOTATION
  6
CONTINUOUS
 62
     1
100
AcDbLine
 10
18.398252796
 20
-14.173228346
 30
0.0
 11
18.221087441
 21
-15.0
 31
0.0
  0
TEXT
  5
1AF
330
1F
100
AcDbEntity
  8
USER_ADJUSTED
  6
CONTINUOUS
 62
     1
100
AcDbText
 10
1.252267792
 20
-7.274495055
 30
0.0
 40
1.238613333
  1
2
 41
0.8
  7
ARIAL
100
AcDbText
  0
LINE
  5
1B0
330
1F
100
AcDbEntity
  8
USER_ADJUSTED
  6
CONTINUOUS
 62
     1
100
AcDbLine
 10
0.6875
 20
-15.0
 30
0.0
 11
0.6875
 21
-7.750884799
 31
0.0
  0
LINE
  5
1B1
330
1F
100
AcDbEntity
  8
USER_ADJUSTED
  6
CONTINUOUS
 62
     1
100
AcDbLine
 10
0.6875
 20
-7.750884799
 30
0.0
 11
0.451279528
 21
-7.987105271
 31
0.0
  0
LINE
  5
1B2
330
1F
100
AcDbEntity
  8
USER_ADJUSTED
  6
CONTINUOUS
 62
     1
100
AcDbLine
 10
0.451279528
 20
-7.987105271
 30
0.0
 11
0.923720472
 21
-7.514664326
 31
0.0
  0
LINE
  5
1B3
330
1F
100
AcDbEntity
  8
USER_ADJUSTED
  6
CONTINUOUS
 62
     1
100
AcDbLine
 10
0.923720472
 20
-7.514664326
 30
0.0
 11
0.6875
 21
-7.750884799
 31
0.0
  0
LINE
  5
1B4
330
1F
100
AcDbEntity
  8
USER_ADJUSTED
  6
CONTINUOUS
 62
     1
100
AcDbLine
 10
0.6875
 20
-7.750884799
 30
0.0
 11
2.6525
 21
-7.750884799
 31
0.0
  0
LINE
  5
1B5
330
1F
100
AcDbEntity
  8
USER_ADJUSTED
  6
CONTINUOUS
 62
     1
100
AcDbLine
 10
2.6525
 20
-7.750884799
 30
0.0
 11
2.416279528
 21
-7.987105271
 31
0.0
  0
LINE
  5
1B6
330
1F
100
AcDbEntity
  8
USER_ADJUSTED
  6
CONTINUOUS
 62
     1
100
AcDbLine
 10
2.416279528
 20
-7.987105271
 30
0.0
 11
2.888720472
 21
-7.514664326
 31
0.0
  0
LINE
  5
1B7
330
1F
100
AcDbEntity
  8
USER_ADJUSTED
  6
CONTINUOUS
 62
     1
100
AcDbLine
 10
2.888720472
 20
-7.514664326
 30
0.0
 11
2.6525
 21
-7.750884799
 31
0.0
  0
LINE
  5
1B8
330
1F
100
AcDbEntity
  8
USER_ADJUSTED
  6
CONTINUOUS
 62
     1
100
AcDbLine
 10
2.6525
 20
-30.0
 30
0.0
 11
2.6525
 21
-7.750884799
 31
0.0
  0
TEXT
  5
1B9
330
1F
100
AcDbEntity
  8
USER_ADJUSTED
  6
CONTINUOUS
 62
     1
100
AcDbText
 10
37.100041149
 20
-4.760144005
 30
0.0
 40
1.238613333
  1
2
 41
0.8
  7
ARIAL
100
AcDbText
  0
LINE
  5
1BA
330
1F
100
AcDbEntity
  8
USER_ADJUSTED
  6
CONTINUOUS
 62
     1
100
AcDbLine
 10
38.3125
 20
-15.0
 30
0.0
 11
38.3125
 21
-5.236533748
 31
0.0
  0
LINE
  5
1BB
330
1F
100
AcDbEntity
  8
USER_ADJUSTED
  6
CONTINUOUS
 62
     1
100
AcDbLine
 10
38.3125
 20
-5.236533748
 30
0.0
 11
38.548720472
 21
-5.000313276
 31
0.0
  0
LINE
  5
1BC
330
1F
100
AcDbEntity
  8
USER_ADJUSTED
  6
CONTINUOUS
 62
     1
100
AcDbLine
 10
38.548720472
 20
-5.000313276
 30
0.0
 11
38.076279528
 21
-5.472754221
 31
0.0
  0
LINE
  5
1BD
330
1F
100
AcDbEntity
  8
USER_ADJUSTED
  6
CONTINUOUS
 62
     1
100
AcDbLine
 10
38.076279528
 20
-5.472754221
 30
0.0
 11
38.3125
 21
-5.236533748
 31
0.0
  0
LINE
  5
1BE
330
1F
100
AcDbEntity
  8
USER_ADJUSTED
  6
CONTINUOUS
 62
     1
100
AcDbLine
 10
38.3125
 20
-5.236533748
 30
0.0
 11
36.3475
 21
-5.236533748
 31
0.0
  0
LINE
  5
1BF
330
1F
100
AcDbEntity
  8
USER_ADJUSTED
  6
CONTINUOUS
 62
     1
100
AcDbLine
 10
36.3475
 20
-5.236533748
 30
0.0
 11
36.583720472
 21
-5.000313276
 31
0.0
  0
LINE
  5
1C0
330
1F
100
AcDbEntity
  8
USER_ADJUSTED
  6
CONTINUOUS
 62
     1
100
AcDbLine
 10
36.583720472
 20
-5.000313276
 30
0.0
 11
36.111279528
 21
-5.472754221
 31
0.0
  0
LINE
  5
1C1
330
1F
100
AcDbEntity
  8
USER_ADJUSTED
  6
CONTINUOUS
 62
     1
100
AcDbLine
 10
36.111279528
 20
-5.472754221
 30
0.0
 11
36.3475
 21
-5.236533748
 31
0.0
  0
LINE
  5
1C2
330
1F
100
AcDbEntity
  8
USER_ADJUSTED
  6
CONTINUOUS
 62
     1
100
AcDbLine
 10
36.3475
 20
-30.0
 30
0.0
 11
36.3475
 21
-5.236533748
 31
0.0
  0
ENDSEC
  0
SECTION
  2
OBJECTS
  0
DICTIONARY
  5
C
330
0
100
AcDbDictionary
  3
ACAD_GROUP
350
D
  3
ACAD_IMAGE_DICT
350
6A
  3
ACAD_LAYOUT
350
1A
  3
ACAD_MATERIAL
350
43
  3
ACAD_MLEADERSTYLE
350
5B
  3
ACAD_MLINESTYLE
350
17
  3
ACAD_PLOTSETTINGS
350
19
  3
ACAD_SCALELIST
350
47
  3
ACAD_VISUALSTYLE
350
2A
  3
ACDBHEADERROUNDTRIPXREC
350
1C3
  3
ACDBVARIABLEDICTIONARY
350
1E4
  3
DWGPROPS
350
1EB
  0
DICTIONARY
  5
1EC
330
8
100
AcDbDictionary
280
     1
  3
ACAD_XREC_ROUNDTRIP
360
1ED
  0
DICTIONARY
  5
D
102
{ACAD_REACTORS
330
C
102
}
330
C
100
AcDbDictionary
  0
DICTIONARY
  5
6A
102
{ACAD_REACTORS
330
C
102
}
330
C
100
AcDbDictionary
  0
DICTIONARY
  5
1A
102
{ACAD_REACTORS
330
C
102
}
330
C
100
AcDbDictionary
  0
DICTIONARY
  5
43
102
{ACAD_REACTORS
330
C
102
}
330
C
100
AcDbDictionary
  3
BYBLOCK
350
45
  3
BYLAYER
350
44
  3
GLOBAL
350
46
  0
DICTIONARY
  5
5B
102
{ACAD_REACTORS
330
C
102
}
330
C
100
AcDbDictionary
  3
STANDARD
350
5C
  0
DICTIONARY
  5
17
102
{ACAD_REACTORS
330
C
102
}
330
C
100
AcDbDictionary
  3
STANDARD
350
18
  0
DICTIONARY
  5
19
102
{ACAD_REACTORS
330
C
102
}
330
C
100
AcDbDictionary
  0
DICTIONARY
  5
47
102
{ACAD_REACTORS
330
C
102
}
330
C
100
AcDbDictionary
  3
A0
350
48
  3
A1
350
49
  3
A2
350
4A
  3
A3
350
4B
  3
A4
350
4C
  3
A5
350
4D
  3
A6
350
4E
  3
A7
350
4F
  3
A8
350
50
  3
A9
350
51
  3
B1
350
52
  3
B2
350
53
  3
B3
350
54
  3
B4
350
55
  3
B5
350
56
  3
B6
350
57
  3
B7
350
58
  0
DICTIONARY
  5
2A
102
{ACAD_REACTORS
330
C
102
}
330
C
100
AcDbDictionary
  3
2DWIREFRAME
350
2F
  3
BASIC
350
32
  3
BRIGHTEN
350
36
  3
COLORCHANGE
350
3A
  3
CONCEPTUAL
350
34
  3
DIM
350
35
  3
EDGECOLOROFF
350
3D
  3
FACEPATTERN
350
39
  3
FLAT
350
2B
  3
FLATWITHEDGES
350
2C
  3
GOURAUD
350
2D
  3
GOURAUDWITHEDGES
350
2E
  3
HIDDEN
350
31
  3
JITTEROFF
350
3B
  3
LINEPATTERN
350
38
  3
OVERHANGOFF
350
3C
  3
REALISTIC
350
33
  3
SHADED
350
42
  3
SHADED_WITH_EDGES
350
41
  3
SHADES_OF_GRAY
350
3E
  3
SKETCHY
350
3F
  3
THICKEN
350
37
  3
WIREFRAME
350
30
  3
X-RAY
350
40
  0
DICTIONARY
  5
1C3
102
{ACAD_REACTORS
330
C
102
}
330
C
100
AcDbDictionary
  3
CEPSNID
350
1CD
  3
CEPSNTYPE
350
1CC
  3
DIMSTYLEDATA
350
1E3
  3
FINGERPRINTGUID
350
1CE
  3
HYPERLINKBASE
350
1C6
  3
INSUNITS
350
1CB
  3
LAYOUTDICT
350
1C8
  3
LWETCUNION
350
1CA
  3
PLOTSETDICT
350
1C9
  3
PSVPSCALE
350
1D0
  3
PUCSBASE
350
1D3
  3
PUCSORGBACK
350
1D9
  3
PUCSORGBOTTOM
350
1D5
  3
PUCSORGFRONT
350
1D8
  3
PUCSORGLEFT
350
1D6
  3
PUCSORGRIGHT
350
1D7
  3
PUCSORGTOP
350
1D4
  3
PUCSORTHOREF
350
1D1
  3
PUCSORTHOVIEW
350
1D2
  3
STYLESHEET
350
1C7
  3
TSTACKALIGN
350
1C4
  3
TSTACKSIZE
350
1C5
  3
UCSBASE
350
1DC
  3
UCSORGBACK
350
1E2
  3
UCSORGBOTTOM
350
1DE
  3
UCSORGFRONT
350
1E1
  3
UCSORGLEFT
350
1DF
  3
UCSORGRIGHT
350
1E0
  3
UCSORGTOP
350
1DD
  3
UCSORTHOREF
350
1DA
  3
UCSORTHOVIEW
350
1DB
  3
VERSIONGUID
350
1CF
  0
DICTIONARY
  5
1E4
102
{ACAD_REACTORS
330
C
102
}
330
C
100
AcDbDictionary
  3
CANNOSCALE
350
1EE
  3
CMLEADERSTYLE
350
1E6
  3
CTABLESTYLE
350
1E5
  3
DIMASSOC
350
1E9
  3
HIDETEXT
350
1EA
  3
MSLTSCALE
350
1EF
  0
XRECORD
  5
1EB
102
{ACAD_REACTORS
330
C
102
}
330
C
100
AcDbXrecord
  1
DWGPROPS COOKIE
  2

  3

  4

  6

  7

  8
subashragul.ts
  9

300
=
301
=
302
=
303
=
304
=
305
=
306
=
307
=
308
=
309
=
 40
0.0
 41
2461306.200594132
 42
2461306.200594271
  1

 90
        0
  0
XRECORD
  5
1ED
102
{ACAD_REACTORS
330
1EC
102
}
330
1EC
100
AcDbXrecord
102
VTR_0.000_0.000_1.000_1.000_VISUALSTYLE
340
2F
102
VTR_0.000_0.000_1.000_1.000_GRIDDISPLAY
 70
     3
102
VTR_0.000_0.000_1.000_1.000_GRIDMAJOR
 70
     5
102
VTR_0.000_0.000_1.000_1.000_DEFAULTLIGHTING
280
     1
102
VTR_0.000_0.000_1.000_1.000_DEFAULTLIGHTINGTYPE
 70
     1
102
VTR_0.000_0.000_1.000_1.000_BRIGHTNESS
141
0.0
102
VTR_0.000_0.000_1.000_1.000_CONTRAST
142
0.0
  0
MATERIAL
  5
45
102
{ACAD_REACTORS
330
43
102
}
102
{ACAD_XDICTIONARY
360
1F2
102
}
330
43
100
AcDbMaterial
  1
BYBLOCK
  0
MATERIAL
  5
44
102
{ACAD_REACTORS
330
43
102
}
102
{ACAD_XDICTIONARY
360
1F0
102
}
330
43
100
AcDbMaterial
  1
BYLAYER
  0
MATERIAL
  5
46
102
{ACAD_REACTORS
330
43
102
}
102
{ACAD_XDICTIONARY
360
1F4
102
}
330
43
100
AcDbMaterial
  1
GLOBAL
  0
ACAD_PROXY_OBJECT
  5
5C
102
{ACAD_REACTORS
330
5B
102
}
330
5B
100
AcDbProxyObject
 90
      499
 91
      505
 93
      610
310
40901902A4063FBFFFFFE056BD1B81E855B9FC0AD7A3703D0AD73F4214DD185B99185C9900AD7A3703D0AC73F90141901A02B5E8DC0F42B1CFC02B5E8DC0F42B1CFE5764000000000000300FC0
340
14
340
0
340
11
340
0
 94
        0
1001
ACAD_MLEADERVER
1070
     2
  0
MLINESTYLE
  5
18
102
{ACAD_REACTORS
330
17
102
}
330
17
100
AcDbMlineStyle
  2
Standard
 70
     0
  3

 62
   256
 51
90.0
 52
90.0
 71
     2
 49
0.5
 62
   256
  6
BYLAYER
 49
-0.5
 62
   256
  6
BYLAYER
  0
ACAD_PROXY_OBJECT
  5
48
102
{ACAD_REACTORS
330
47
102
}
330
47
100
AcDbProxyObject
 90
      499
 91
      503
 93
       41
310
903313A31580
  0
ACAD_PROXY_OBJECT
  5
49
102
{ACAD_REACTORS
330
47
102
}
330
47
100
AcDbProxyObject
 90
      499
 91
      503
 93
      257
310
90E312F31323822203D2031272D3022000000000000200FC000000000000284000
  0
ACAD_PROXY_OBJECT
  5
4A
102
{ACAD_REACTORS
330
47
102
}
330
47
100
AcDbProxyObject
 90
      499
 91
      503
 93
      249
310
90D312F363422203D2031272D3022000000000000240FC000000000000284000
  0
ACAD_PROXY_OBJECT
  5
4B
102
{ACAD_REACTORS
330
47
102
}
330
47
100
AcDbProxyObject
 90
      499
 91
      503
 93
      249
310
90D312F333222203D2031272D3022000000000000280FC000000000000284000
  0
ACAD_PROXY_OBJECT
  5
4C
102
{ACAD_REACTORS
330
47
102
}
330
47
100
AcDbProxyObject
 90
      499
 91
      503
 93
      249
310
90D312F313622203D2031272D30220000000000002C0FC000000000000284000
  0
ACAD_PROXY_OBJECT
  5
4D
102
{ACAD_REACTORS
330
47
102
}
330
47
100
AcDbProxyObject
 90
      499
 91
      503
 93
      249
310
90D332F333222203D2031272D30220000000000002E0FC000000000000284000
  0
ACAD_PROXY_OBJECT
  5
4E
102
{ACAD_REACTORS
330
47
102
}
330
47
100
AcDbProxyObject
 90
      499
 91
      503
 93
      241
310
90C312F3822203D2031272D3022000000000000300FC000000000000284000
  0
ACAD_PROXY_OBJECT
  5
4F
102
{ACAD_REACTORS
330
47
102
}
330
47
100
AcDbProxyObject
 90
      499
 91
      503
 93
      249
310
90D332F313622203D2031272D3022000000000000320FC000000000000284000
  0
ACAD_PROXY_OBJECT
  5
50
102
{ACAD_REACTORS
330
47
102
}
330
47
100
AcDbProxyObject
 90
      499
 91
      503
 93
      241
310
90C312F3422203D2031272D3022000000000000340FC000000000000284000
  0
ACAD_PROXY_OBJECT
  5
51
102
{ACAD_REACTORS
330
47
102
}
330
47
100
AcDbProxyObject
 90
      499
 91
      503
 93
      241
310
90C332F3822203D2031272D3022000000000000360FC000000000000284000
  0
ACAD_PROXY_OBJECT
  5
52
102
{ACAD_REACTORS
330
47
102
}
330
47
100
AcDbProxyObject
 90
      499
 91
      503
 93
      241
310
90C312F3222203D2031272D3022000000000000380FC000000000000284000
  0
ACAD_PROXY_OBJECT
  5
53
102
{ACAD_REACTORS
330
47
102
}
330
47
100
AcDbProxyObject
 90
      499
 91
      503
 93
      241
310
90C332F3422203D2031272D30220000000000003A0FC000000000000284000
  0
ACAD_PROXY_OBJECT
  5
54
102
{ACAD_REACTORS
330
47
102
}
330
47
100
AcDbProxyObject
 90
      499
 91
      503
 93
      161
310
90A3122203D2031272D30224000000000000284000
  0
ACAD_PROXY_OBJECT
  5
55
102
{ACAD_REACTORS
330
47
102
}
330
47
100
AcDbProxyObject
 90
      499
 91
      503
 93
      257
310
90E312D312F3222203D2031272D30220000000000003E0FC000000000000284000
  0
ACAD_PROXY_OBJECT
  5
56
102
{ACAD_REACTORS
330
47
102
}
330
47
100
AcDbProxyObject
 90
      499
 91
      503
 93
      225
310
90A3322203D2031272D302200000000000002100000000000000284000
  0
ACAD_PROXY_OBJECT
  5
57
102
{ACAD_REACTORS
330
47
102
}
330
47
100
AcDbProxyObject
 90
      499
 91
      503
 93
      225
310
90A3622203D2031272D302200000000000006100000000000000284000
  0
ACAD_PROXY_OBJECT
  5
58
102
{ACAD_REACTORS
330
47
102
}
330
47
100
AcDbProxyObject
 90
      499
 91
      503
 93
      249
310
90D31272D3022203D2031272D30220000000000000A100000000000000284000
  0
ACAD_PROXY_OBJECT
  5
2F
102
{ACAD_REACTORS
330
2A
102
}
330
2A
100
AcDbProxyObject
 90
      499
 91
      501
 93
      436
310
42CC9915DA5C99599C985B595049028333333333333E33F0000000000000F90107901411070040501600405405064090741402480A0340
1001
ACAD
1000
AcDbSavedByObjectVersion
1070
     0
  0
ACAD_PROXY_OBJECT
  5
32
102
{ACAD_REACTORS
330
2A
102
}
330
2A
100
AcDbProxyObject
 90
      499
 91
      501
 93
      388
310
4150985CDA58D07406404333333333333E33F0000000000000F90107A41107004050150841D405064090741402480A0350
1001
ACAD
1000
AcDbSavedByObjectVersion
1070
     0
  0
ACAD_PROXY_OBJECT
  5
36
102
{ACAD_REACTORS
330
2A
102
}
330
2A
100
AcDbProxyObject
 90
      499
 91
      501
 93
      428
310
42109C9A59DA1D195B90C409028333333333333E33F0000000000000F9010790141107004050150841D405064090741402480A029950
1001
ACAD
1000
AcDbSavedByObjectVersion
1070
     0
  0
ACAD_PROXY_OBJECT
  5
3A
102
{ACAD_REACTORS
330
2A
102
}
330
2A
100
AcDbProxyObject
 90
      499
 91
      501
 93
      452
310
42D0DBDB1BDC90DA185B99D95104090240C333333333333E33F0000000000000F90108901411070040501508421405064090741402480A0350
1001
ACAD
1000
AcDbSavedByObjectVersion
1070
     0
  0
ACAD_PROXY_OBJECT
  5
34
102
{ACAD_REACTORS
330
2A
102
}
330
2A
100
AcDbProxyObject
 90
      499
 91
      501
 93
      500
310
4290DBDB98D95C1D1D585B10940D028333333333333E33F0000000000000F90107902409070040501000000000018199010841D405064090740C02480A0340
1001
ACAD
1000
AcDbSavedByObjectVersion
1070
     0
  0
ACAD_PROXY_OBJECT
  5
35
102
{ACAD_REACTORS
330
2A
102
}
330
2A
100
AcDbProxyObject
 90
      499
 91
      501
 93
      412
310
40D11A5B50B409028333333333333E33F0000000000000F9010790141107004050150841D405064090741402480A02677FFFFFD0
1001
ACAD
1000
AcDbSavedByObjectVersion
1070
     0
  0
ACAD_PROXY_OBJECT
  5
3D
102
{ACAD_REACTORS
330
2A
102
}
330
2A
100
AcDbProxyObject
 90
      499
 91
      501
 93
      452
310
43115919D950DBDB1BDC93D999916409028333333333333E33F0000000000000F9010790141107004050150841D405064090741402480A0350
1001
ACAD
1000
AcDbSavedByObjectVersion
1070
     0
  0
ACAD_PROXY_OBJECT
  5
39
102
{ACAD_REACTORS
330
2A
102
}
330
2A
100
AcDbProxyObject
 90
      499
 91
      501
 93
      444
310
42D19858D95C185D1D195C9B90F409028333333333333E33F0000000000000F9010790141107004050150841D405064090741402480A0350
1001
ACAD
1000
AcDbSavedByObjectVersion
1070
     0
  0
ACAD_PROXY_OBJECT
  5
2B
102
{ACAD_REACTORS
330
2A
102
}
330
2A
100
AcDbProxyObject
 90
      499
 91
      501
 93
      380
310
41119B185D240901404333333333333E33F0000000000000F9010740A907004050150841D405064090741402480A1B50
1001
ACAD
1000
AcDbSavedByObjectVersion
1070
     0
  0
ACAD_PROXY_OBJECT
  5
2C
102
{ACAD_REACTORS
330
2A
102
}
330
2A
100
AcDbProxyObject
 90
      499
 91
      501
 93
      468
310
43519B185D15DA5D1A115919D95CD0140901404333333333333E33F0000000000000F90107409019070040501600405405064090741402480A1B50
1001
ACAD
1000
AcDbSavedByObjectVersion
1070
     0
  0
ACAD_PROXY_OBJECT
  5
2D
102
{ACAD_REACTORS
330
2A
102
}
330
2A
100
AcDbProxyObject
 90
      499
 91
      501
 93
      404
310
41D1DBDD5C985D5910240902404333333333333E33F0000000000000F9010740A9070040501641D405064090741402480A1B50
1001
ACAD
1000
AcDbSavedByObjectVersion
1070
     0
  0
ACAD_PROXY_OBJECT
  5
2E
102
{ACAD_REACTORS
330
2A
102
}
330
2A
100
AcDbProxyObject
 90
      499
 91
      501
 93
      492
310
4411DBDD5C985D5915DA5D1A115919D95CD0340902404333333333333E33F0000000000000F90107409019070040501600405405064090741402480A1B50
1001
ACAD
1000
AcDbSavedByObjectVersion
1070
     0
  0
ACAD_PROXY_OBJECT
  5
31
102
{ACAD_REACTORS
330
2A
102
}
330
2A
100
AcDbProxyObject
 90
      499
 91
      501
 93
      476
310
41921A5919195B90640502408333333333333E33F0000000000000F901079024090700405020000000000001110200405405064090740C02480A0340
1001
ACAD
1000
AcDbSavedByObjectVersion
1070
     0
  0
ACAD_PROXY_OBJECT
  5
3B
102
{ACAD_REACTORS
330
2A
102
}
330
2A
100
AcDbProxyObject
 90
      499
 91
      501
 93
      428
310
42529A5D1D195C93D999914409028333333333333E33F0000000000000F9010790141107004050150A41D405064090741402480A0350
1001
ACAD
1000
AcDbSavedByObjectVersion
1070
     0
  0
ACAD_PROXY_OBJECT
  5
38
102
{ACAD_REACTORS
330
2A
102
}
330
2A
100
AcDbProxyObject
 90
      499
 91
      501
 93
      444
310
42D31A5B995C185D1D195C9B90E409028333333333333E33F0000000000000F9010790141107004050750841D405064090741402483A0350
1001
ACAD
1000
AcDbSavedByObjectVersion
1070
     0
  0
ACAD_PROXY_OBJECT
  5
3C
102
{ACAD_REACTORS
330
2A
102
}
330
2A
100
AcDbProxyObject
 90
      499
 91
      501
 93
      444
310
42D3DD995C9A185B99D3D999915409028333333333333E33F0000000000000F9010790141107004050150941D405064090741402480A0350
1001
ACAD
1000
AcDbSavedByObjectVersion
1070
     0
  0
ACAD_PROXY_OBJECT
  5
33
102
{ACAD_REACTORS
330
2A
102
}
330
2A
100
AcDbProxyObject
 90
      499
 91
      501
 93
      428
310
425499585B1A5CDD1A58D08409038333333333333E33F0000000000000F9010740A907004050150800405405064090740C02480A1B40
1001
ACAD
1000
AcDbSavedByObjectVersion
1070
     0
  0
ACAD_PROXY_OBJECT
  5
42
102
{ACAD_REACTORS
330
2A
102
}
330
2A
100
AcDbProxyObject
 90
      499
 91
      501
 93
      420
310
4194DA1859195911B40902404333333333333E33F0000000000000F9010740A41107004050150800405405064090840C02480A0B40
1001
ACAD
1000
AcDbSavedByObjectVersion
1070
     0
  0
ACAD_PROXY_OBJECT
  5
41
102
{ACAD_REACTORS
330
2A
102
}
330
2A
100
AcDbProxyObject
 90
      499
 91
      501
 93
      516
310
4454DA18591959081DDA5D1A08195919D95CD1A40902404333333333333E33F0000000000000F901074090142907004050250800405405064090740C02480A0B40
1001
ACAD
1000
AcDbSavedByObjectVersion
1070
     0
  0
ACAD_PROXY_OBJECT
  5
3E
102
{ACAD_REACTORS
330
2A
102
}
330
2A
100
AcDbProxyObject
 90
      499
 91
      501
 93
      532
310
4394DA1859195CC81BD98811DC985E5174090240C333333333333E33F0000000000000F901079024090741D01000000000000111010841D405064090740C02480A0340
1001
ACAD
1000
AcDbSavedByObjectVersion
1070
     0
  0
ACAD_PROXY_OBJECT
  5
3F
102
{ACAD_REACTORS
330
2A
102
}
330
2A
100
AcDbProxyObject
 90
      499
 91
      501
 93
      476
310
41D4DAD95D18DA1E51840502408333333333333E33F0000000000000F901079024090741D01000000000000111010B41D405064090741802480A0340
1001
ACAD
1000
AcDbSavedByObjectVersion
1070
     0
  0
ACAD_PROXY_OBJECT
  5
37
102
{ACAD_REACTORS
330
2A
102
}
330
2A
100
AcDbProxyObject
 90
      499
 91
      501
 93
      412
310
41D51A1A58DAD95B90D409028333333333333E33F0000000000000F9010790141107004050150C41D405064090741402480A0350
1001
ACAD
1000
AcDbSavedByObjectVersion
1070
     0
  0
ACAD_PROXY_OBJECT
  5
30
102
{ACAD_REACTORS
330
2A
102
}
330
2A
100
AcDbProxyObject
 90
      499
 91
      501
 93
      420
310
4255DA5C99599C985B595059028333333333333E33F0000000000000F90107901411070040501600405405064090740C02480A0340
1001
ACAD
1000
AcDbSavedByObjectVersion
1070
     0
  0
ACAD_PROXY_OBJECT
  5
40
102
{ACAD_REACTORS
330
2A
102
}
330
2A
100
AcDbProxyObject
 90
      499
 91
      501
 93
      404
310
41560B54985E51940902404000000000000E03F0000000000000F9010740501907004050150841D405064090740C02480A1B40
1001
ACAD
1000
AcDbSavedByObjectVersion
1070
     0
  0
XRECORD
  5
1CD
102
{ACAD_REACTORS
330
1C3
102
}
330
1C3
100
AcDbXrecord
340
0
  0
XRECORD
  5
1CC
102
{ACAD_REACTORS
330
1C3
102
}
330
1C3
100
AcDbXrecord
 90
        0
  0
XRECORD
  5
1E3
102
{ACAD_REACTORS
330
1C3
102
}
330
1C3
100
AcDbXrecord
1000
DSTYLE
1002
{
1070
   276
 70
     1
1070
   277
 70
     4
1070
   340
340
11
1002
}
  0
XRECORD
  5
1CE
102
{ACAD_REACTORS
330
1C3
102
}
330
1C3
100
AcDbXrecord
  1
{b6383430-7332-6370-b832-307372323336}
  0
XRECORD
  5
1C6
102
{ACAD_REACTORS
330
1C3
102
}
330
1C3
100
AcDbXrecord
  1

  0
XRECORD
  5
1CB
102
{ACAD_REACTORS
330
1C3
102
}
330
1C3
100
AcDbXrecord
 90
        1
  0
XRECORD
  5
1C8
102
{ACAD_REACTORS
330
1C3
102
}
330
1C3
100
AcDbXrecord
340
1A
  0
XRECORD
  5
1CA
102
{ACAD_REACTORS
330
1C3
102
}
330
1C3
100
AcDbXrecord
 90
    10781
  0
XRECORD
  5
1C9
102
{ACAD_REACTORS
330
1C3
102
}
330
1C3
100
AcDbXrecord
340
19
  0
XRECORD
  5
1D0
102
{ACAD_REACTORS
330
1C3
102
}
330
1C3
100
AcDbXrecord
 40
0.0
  0
XRECORD
  5
1D3
102
{ACAD_REACTORS
330
1C3
102
}
330
1C3
100
AcDbXrecord
340
0
  0
XRECORD
  5
1D9
102
{ACAD_REACTORS
330
1C3
102
}
330
1C3
100
AcDbXrecord
 10
0.0
 20
0.0
 30
0.0
  0
XRECORD
  5
1D5
102
{ACAD_REACTORS
330
1C3
102
}
330
1C3
100
AcDbXrecord
 10
0.0
 20
0.0
 30
0.0
  0
XRECORD
  5
1D8
102
{ACAD_REACTORS
330
1C3
102
}
330
1C3
100
AcDbXrecord
 10
0.0
 20
0.0
 30
0.0
  0
XRECORD
  5
1D6
102
{ACAD_REACTORS
330
1C3
102
}
330
1C3
100
AcDbXrecord
 10
0.0
 20
0.0
 30
0.0
  0
XRECORD
  5
1D7
102
{ACAD_REACTORS
330
1C3
102
}
330
1C3
100
AcDbXrecord
 10
0.0
 20
0.0
 30
0.0
  0
XRECORD
  5
1D4
102
{ACAD_REACTORS
330
1C3
102
}
330
1C3
100
AcDbXrecord
 10
0.0
 20
0.0
 30
0.0
  0
XRECORD
  5
1D1
102
{ACAD_REACTORS
330
1C3
102
}
330
1C3
100
AcDbXrecord
340
0
  0
XRECORD
  5
1D2
102
{ACAD_REACTORS
330
1C3
102
}
330
1C3
100
AcDbXrecord
 70
     0
  0
XRECORD
  5
1C7
102
{ACAD_REACTORS
330
1C3
102
}
330
1C3
100
AcDbXrecord
  1

  0
XRECORD
  5
1C4
102
{ACAD_REACTORS
330
1C3
102
}
330
1C3
100
AcDbXrecord
 90
        1
  0
XRECORD
  5
1C5
102
{ACAD_REACTORS
330
1C3
102
}
330
1C3
100
AcDbXrecord
 90
       70
  0
XRECORD
  5
1DC
102
{ACAD_REACTORS
330
1C3
102
}
330
1C3
100
AcDbXrecord
340
0
  0
XRECORD
  5
1E2
102
{ACAD_REACTORS
330
1C3
102
}
330
1C3
100
AcDbXrecord
 10
0.0
 20
0.0
 30
0.0
  0
XRECORD
  5
1DE
102
{ACAD_REACTORS
330
1C3
102
}
330
1C3
100
AcDbXrecord
 10
0.0
 20
0.0
 30
0.0
  0
XRECORD
  5
1E1
102
{ACAD_REACTORS
330
1C3
102
}
330
1C3
100
AcDbXrecord
 10
0.0
 20
0.0
 30
0.0
  0
XRECORD
  5
1DF
102
{ACAD_REACTORS
330
1C3
102
}
330
1C3
100
AcDbXrecord
 10
0.0
 20
0.0
 30
0.0
  0
XRECORD
  5
1E0
102
{ACAD_REACTORS
330
1C3
102
}
330
1C3
100
AcDbXrecord
 10
0.0
 20
0.0
 30
0.0
  0
XRECORD
  5
1DD
102
{ACAD_REACTORS
330
1C3
102
}
330
1C3
100
AcDbXrecord
 10
0.0
 20
0.0
 30
0.0
  0
XRECORD
  5
1DA
102
{ACAD_REACTORS
330
1C3
102
}
330
1C3
100
AcDbXrecord
340
0
  0
XRECORD
  5
1DB
102
{ACAD_REACTORS
330
1C3
102
}
330
1C3
100
AcDbXrecord
 70
     0
  0
XRECORD
  5
1CF
102
{ACAD_REACTORS
330
1C3
102
}
330
1C3
100
AcDbXrecord
  1
{FAEB1C32-E019-11D5-929B-00C0DF256EC4}
  0
DICTIONARYVAR
  5
1EE
102
{ACAD_REACTORS
330
1E4
102
}
330
1E4
100
DictionaryVariables
280
     0
  1
1:1
  0
DICTIONARYVAR
  5
1E6
102
{ACAD_REACTORS
330
1E4
102
}
330
1E4
100
DictionaryVariables
280
     0
  1
Standard
  0
DICTIONARYVAR
  5
1E5
102
{ACAD_REACTORS
330
1E4
102
}
330
1E4
100
DictionaryVariables
280
     0
  1
Standard
  0
DICTIONARYVAR
  5
1E9
102
{ACAD_REACTORS
330
1E4
102
}
330
1E4
100
DictionaryVariables
280
     0
  1
2
  0
DICTIONARYVAR
  5
1EA
102
{ACAD_REACTORS
330
1E4
102
}
330
1E4
100
DictionaryVariables
280
     0
  1
1
  0
DICTIONARYVAR
  5
1EF
102
{ACAD_REACTORS
330
1E4
102
}
330
1E4
100
DictionaryVariables
280
     0
  1
1
  0
DICTIONARY
  5
1F2
330
45
100
AcDbDictionary
280
     1
  3
ACAD_XREC_ROUNDTRIP
360
1F3
  0
DICTIONARY
  5
1F0
330
44
100
AcDbDictionary
280
     1
  3
ACAD_XREC_ROUNDTRIP
360
1F1
  0
DICTIONARY
  5
1F4
330
46
100
AcDbDictionary
280
     1
  3
ACAD_XREC_ROUNDTRIP
360
1F5
  0
XRECORD
  5
1F3
102
{ACAD_REACTORS
330
1F2
102
}
330
1F2
100
AcDbXrecord
102
MATERIAL
148
0.0
149
0.0
149
0.0
 93
        0
 94
      127
282
     0
 72
     1
 77
     1
171
     1
175
     1
179
     1
273
     0
  0
XRECORD
  5
1F1
102
{ACAD_REACTORS
330
1F0
102
}
330
1F0
100
AcDbXrecord
102
MATERIAL
148
0.0
149
0.0
149
0.0
 93
        0
 94
      127
282
     0
 72
     1
 77
     1
171
     1
175
     1
179
     1
273
     0
  0
XRECORD
  5
1F5
102
{ACAD_REACTORS
330
1F4
102
}
330
1F4
100
AcDbXrecord
102
MATERIAL
148
0.0
149
0.0
149
0.0
 93
        0
 94
      127
282
     0
 72
     1
 77
     1
171
     1
175
     1
179
     1
273
     0
  0
ENDSEC
  0
EOF
